<?xml version="1.0" encoding="UTF-8" standalone="no"?>
<!DOCTYPE svg PUBLIC "-//W3C//DTD SVG 1.1//EN" "http://www.w3.org/Graphics/SVG/1.1/DTD/svg11.dtd">
<svg width="100%" height="100%" viewBox="0 0 199 200" version="1.1" xmlns="http://www.w3.org/2000/svg" xmlns:xlink="http://www.w3.org/1999/xlink" xml:space="preserve" xmlns:serif="http://www.serif.com/" style="fill-rule:evenodd;clip-rule:evenodd;stroke-linejoin:round;stroke-miterlimit:2;">
    <path d="M90.902,86.171L91.102,86.179L91.302,86.191L91.5,86.206L91.698,86.226L91.895,86.249L92.092,86.276L92.287,86.308L92.482,86.343L92.675,86.382L92.867,86.425L93.059,86.472L93.249,86.523L93.437,86.578L93.624,86.637L93.809,86.7L93.993,86.768L94.175,86.839L94.354,86.914L94.532,86.993L94.708,87.076L94.881,87.163L95.052,87.254L95.221,87.348L95.387,87.445L95.55,87.547L95.711,87.651L95.869,87.759L96.023,87.87L96.176,87.984L96.324,88.101L96.47,88.221L96.613,88.344L96.753,88.469L96.89,88.597L97.023,88.727L97.153,88.859L97.28,88.993L97.405,89.13L97.525,89.268L97.643,89.409L97.758,89.551L97.87,89.695L97.979,89.84L98.084,89.986L98.187,90.135L98.287,90.284L98.385,90.435L98.479,90.587L98.571,90.74L98.66,90.894L98.747,91.05L98.831,91.206L98.912,91.363L98.991,91.522L99.068,91.681L99.143,91.841L99.215,92.002L99.285,92.163L99.353,92.326L99.419,92.489L99.482,92.653L99.544,92.818L99.604,92.983L99.662,93.15L99.718,93.317L99.773,93.484L99.825,93.652L99.876,93.821L99.925,93.991L99.973,94.161L100.019,94.332L100.063,94.504L100.106,94.676L100.148,94.849L100.188,95.023L100.226,95.197L100.263,95.372L100.299,95.548L100.334,95.724L100.367,95.901L100.399,96.078L100.429,96.256L100.459,96.435L100.487,96.614L100.514,96.794L100.54,96.974L100.565,97.156L100.588,97.337L100.611,97.52L100.633,97.703L100.653,97.886L100.673,98.07L100.691,98.255L100.709,98.44L100.725,98.626L100.741,98.813L100.755,99L100.769,99.187L100.782,99.375L100.794,99.564L100.805,99.753L100.815,99.943L100.825,100.133L100.833,100.324L100.841,100.519L100.854,100.899L100.864,101.285L100.872,101.673L100.876,102.062L100.878,102.454L100.877,102.847L100.874,103.241L100.868,103.638L100.86,104.035L100.849,104.434L100.837,104.834L100.823,105.235L100.806,105.638L100.788,106.041L100.768,106.445L100.746,106.85L100.723,107.255L100.698,107.661L100.672,108.068L100.644,108.475L100.615,108.882L100.585,109.289L100.554,109.696L100.522,110.104L100.489,110.511L100.455,110.917L100.42,111.325L100.349,112.135L100.276,112.942L100.201,113.746L100.126,114.545L100.05,115.338L99.901,116.903L99.829,117.671L99.76,118.43L99.693,119.179L99.661,119.547L99.63,119.913L99.6,120.276L99.571,120.635L99.544,120.991L99.518,121.342L99.493,121.69L99.469,122.034L99.448,122.373L99.427,122.708L99.409,123.038L99.392,123.363L99.377,123.684L99.363,123.999L99.352,124.309L99.343,124.613L99.335,124.912L99.33,125.205L99.327,125.491L99.326,125.771L99.327,126.045L99.331,126.311L99.337,126.571L99.345,126.828L99.35,126.947L99.355,127.068L99.361,127.187L99.369,127.319L99.376,127.457L99.384,127.618L99.396,127.941L99.407,128.296L99.419,128.679L99.432,129.088L99.449,129.526L99.458,129.749L99.468,129.979L99.48,130.213L99.493,130.451L99.507,130.692L99.523,130.936L99.54,131.183L99.559,131.43L99.58,131.679L99.603,131.928L99.628,132.177L99.654,132.425L99.683,132.671L99.715,132.919L99.731,133.036L99.747,133.156L99.765,133.275L99.783,133.393L99.801,133.51L99.82,133.626L99.84,133.74L99.86,133.853L99.881,133.965L99.902,134.075L99.923,134.183L99.946,134.289L99.968,134.394L99.991,134.496L100.015,134.596L100.039,134.694L100.063,134.79L100.088,134.883L100.113,134.973L100.138,135.061L100.161,135.136L100.201,135.111L100.276,135.061L100.351,135.012L100.426,134.961L100.501,134.91L100.575,134.858L100.648,134.806L100.722,134.752L100.795,134.698L100.868,134.644L100.94,134.589L101.012,134.533L101.084,134.476L101.155,134.419L101.226,134.361L101.297,134.303L101.367,134.244L101.437,134.184L101.507,134.123L101.577,134.062L101.646,134L101.715,133.938L101.783,133.875L101.851,133.811L101.919,133.746L101.987,133.681L102.054,133.615L102.121,133.548L102.188,133.481L102.254,133.413L102.321,133.345L102.386,133.276L102.452,133.206L102.517,133.135L102.582,133.064L102.647,132.992L102.711,132.92L102.775,132.847L102.839,132.773L102.903,132.698L102.966,132.623L103.029,132.547L103.091,132.471L103.154,132.394L103.216,132.316L103.278,132.238L103.339,132.159L103.397,132.083L103.521,131.918L103.642,131.755L103.761,131.588L103.879,131.42L103.995,131.249L104.111,131.076L104.225,130.9L104.338,130.722L104.45,130.542L104.56,130.359L104.67,130.175L104.778,129.988L104.885,129.799L104.991,129.608L105.095,129.414L105.199,129.219L105.301,129.022L105.402,128.823L105.501,128.622L105.6,128.419L105.697,128.214L105.793,128.007L105.887,127.799L105.981,127.589L106.073,127.377L106.164,127.164L106.254,126.949L106.343,126.733L106.43,126.515L106.516,126.296L106.601,126.075L106.685,125.853L106.768,125.63L106.849,125.406L106.93,125.18L107.009,124.953L107.087,124.725L107.164,124.496L107.239,124.266L107.314,124.035L107.387,123.803L107.46,123.571L107.531,123.337L107.601,123.103L107.67,122.868L107.738,122.632L107.805,122.395L107.871,122.158L107.936,121.921L108,121.683L108.063,121.444L108.124,121.205L108.185,120.966L108.245,120.726L108.304,120.486L108.362,120.246L108.419,120.005L108.475,119.765L108.53,119.524L108.584,119.283L108.638,119.043L108.69,118.802L108.742,118.561L108.792,118.321L108.842,118.081L108.892,117.84L108.939,117.603L109.034,117.121L109.125,116.644L109.214,116.169L109.299,115.695L109.382,115.224L109.463,114.756L109.541,114.292L109.617,113.83L109.69,113.373L109.762,112.92L109.832,112.471L109.899,112.028L110.031,111.153L110.158,110.301L110.335,109.109L110.422,108.519L110.507,107.934L110.589,107.352L110.629,107.066L110.667,106.779L110.705,106.493L110.741,106.208L110.776,105.924L110.809,105.642L110.841,105.36L110.872,105.08L110.901,104.801L110.928,104.523L110.953,104.246L110.976,103.97L110.998,103.695L111.017,103.421L111.034,103.148L111.049,102.875L111.062,102.604L111.072,102.334L111.08,102.064L111.085,101.796L111.088,101.524L111.088,101.394L111.088,101.269L111.086,101.113L111.082,100.963L111.077,100.809L111.069,100.651L111.058,100.489L111.046,100.324L111.033,100.156L111.017,99.984L110.999,99.81L110.98,99.632L110.959,99.451L110.936,99.268L110.912,99.081L110.887,98.892L110.86,98.7L110.832,98.508L110.773,98.108L110.71,97.702L110.579,96.862L110.512,96.429L110.446,95.991L110.413,95.765L110.381,95.539L110.35,95.312L110.32,95.082L110.291,94.851L110.262,94.617L110.236,94.382L110.21,94.145L110.187,93.906L110.165,93.665L110.145,93.422L110.128,93.177L110.113,92.93L110.101,92.682L110.091,92.431L110.084,92.179L110.081,91.924L110.081,91.675L110.083,91.54L110.085,91.411L110.089,91.281L110.093,91.151L110.098,91.02L110.105,90.89L110.112,90.758L110.121,90.626L110.131,90.494L110.142,90.362L110.154,90.228L110.168,90.095L110.183,89.961L110.199,89.827L110.217,89.693L110.235,89.558L110.256,89.422L110.278,89.287L110.301,89.151L110.326,89.015L110.352,88.879L110.38,88.742L110.409,88.605L110.441,88.468L110.473,88.331L110.508,88.193L110.544,88.055L110.582,87.918L110.622,87.78L110.664,87.642L110.707,87.504L110.753,87.366L110.8,87.228L110.849,87.09L110.901,86.953L110.954,86.814L111.02,86.65L111.107,86.441L111.212,86.195L111.275,86.051L111.342,85.903L111.413,85.747L111.488,85.584L111.569,85.415L111.654,85.24L111.743,85.06L111.838,84.876L111.936,84.687L112.04,84.495L112.149,84.301L112.259,84.11L112.322,84.005L112.383,83.905L112.446,83.804L112.51,83.703L112.576,83.601L112.644,83.499L112.715,83.395L112.788,83.291L112.864,83.187L112.943,83.082L113.025,82.975L113.111,82.868L113.201,82.759L113.296,82.649L113.397,82.538L113.505,82.425L113.619,82.311L113.743,82.195L113.876,82.077L114.021,81.958L114.179,81.837L114.353,81.716L114.544,81.596L114.734,81.49L114.869,81.421L114.989,81.365L115.117,81.31L115.25,81.258L115.39,81.209L115.537,81.163L115.691,81.121L115.781,81.101L116.09,81.045L116.098,81.044L116.537,81.012L116.546,81.012L116.938,81.031L116.947,81.032L117.279,81.083L117.431,81.113L117.7,81.191L117.97,81.291L118.131,81.367L118.413,81.517L118.542,81.593L118.746,81.733L118.909,81.858L119.044,81.971L119.158,82.074L119.257,82.169L119.347,82.259L119.428,82.345L119.504,82.427L119.583,82.515L119.707,82.66L119.832,82.812L119.95,82.961L120.065,83.111L120.178,83.26L120.288,83.41L120.396,83.56L120.502,83.709L120.607,83.858L120.709,84.006L120.81,84.153L120.998,84.43L121.173,84.692L121.328,84.928L121.558,85.28L121.599,85.342L122.055,85.956L122.312,86.303L122.569,86.652L122.828,87.005L123.088,87.361L123.348,87.721L123.609,88.084L123.869,88.45L124.129,88.819L124.388,89.192L124.644,89.567L124.774,89.759L124.903,89.949L125.03,90.141L125.158,90.333L125.284,90.527L125.411,90.721L125.536,90.916L125.661,91.113L125.786,91.31L125.909,91.508L126.032,91.707L126.155,91.908L126.276,92.109L126.396,92.311L126.516,92.514L126.635,92.719L126.752,92.924L126.869,93.131L126.984,93.338L127.099,93.547L127.212,93.757L127.324,93.968L127.435,94.18L127.544,94.393L127.652,94.607L127.759,94.823L127.864,95.04L127.968,95.258L128.07,95.477L128.171,95.697L128.27,95.918L128.367,96.141L128.463,96.365L128.557,96.59L128.649,96.817L128.739,97.044L128.827,97.273L128.913,97.503L128.997,97.735L129.078,97.965L129.155,98.188L129.229,98.409L129.301,98.63L129.372,98.851L129.441,99.072L129.508,99.294L129.574,99.516L129.638,99.738L129.701,99.96L129.762,100.182L129.822,100.404L129.881,100.627L129.938,100.849L129.993,101.072L130.048,101.295L130.1,101.518L130.152,101.741L130.202,101.965L130.251,102.188L130.298,102.411L130.344,102.635L130.389,102.858L130.433,103.082L130.476,103.305L130.517,103.529L130.557,103.752L130.596,103.976L130.634,104.2L130.671,104.424L130.706,104.647L130.741,104.871L130.774,105.095L130.807,105.318L130.838,105.542L130.868,105.766L130.898,105.989L130.926,106.213L130.954,106.436L130.98,106.66L131.006,106.883L131.031,107.106L131.055,107.329L131.078,107.553L131.1,107.779L131.142,108.222L131.181,108.667L131.217,109.112L131.25,109.557L131.281,110.001L131.309,110.445L131.334,110.888L131.357,111.33L131.379,111.772L131.398,112.213L131.415,112.653L131.431,113.092L131.445,113.531L131.457,113.968L131.469,114.405L131.479,114.841L131.488,115.275L131.496,115.71L131.51,116.572L131.522,117.431L131.543,119.133L131.554,119.975L131.568,120.812L131.575,121.226L131.584,121.64L131.593,122.051L131.603,122.461L131.615,122.869L131.627,123.275L131.641,123.678L131.657,124.08L131.674,124.479L131.693,124.877L131.714,125.272L131.737,125.675L131.751,125.928L131.765,126.19L131.777,126.452L131.788,126.715L131.807,127.227L131.823,127.738L131.84,128.242L131.857,128.74L131.866,128.984L131.875,129.226L131.886,129.466L131.898,129.704L131.91,129.938L131.924,130.17L131.939,130.398L131.956,130.624L131.974,130.845L131.994,131.063L132.016,131.277L132.04,131.493L132.052,131.591L132.065,131.694L132.078,131.795L132.092,131.895L132.107,131.994L132.122,132.092L132.137,132.188L132.153,132.284L132.17,132.377L132.187,132.47L132.204,132.562L132.222,132.652L132.241,132.74L132.26,132.828L132.28,132.914L132.3,132.998L132.321,133.081L132.342,133.163L132.363,133.243L132.386,133.322L132.408,133.399L132.431,133.475L132.455,133.549L132.479,133.622L132.503,133.693L132.528,133.762L132.553,133.83L132.579,133.896L132.605,133.961L132.631,134.025L132.658,134.087L132.685,134.147L132.712,134.206L132.74,134.263L132.768,134.319L132.796,134.373L132.825,134.426L132.853,134.477L132.883,134.528L132.912,134.577L132.942,134.624L132.972,134.671L133.002,134.716L133.033,134.76L133.064,134.803L133.096,134.845L133.127,134.885L133.16,134.925L133.192,134.964L133.226,135.003L133.26,135.04L133.294,135.077L133.329,135.113L133.365,135.148L133.402,135.183L133.439,135.218L133.478,135.252L133.517,135.285L133.558,135.318L133.6,135.351L133.643,135.384L133.687,135.416L133.733,135.448L133.781,135.48L133.83,135.511L133.881,135.543L133.934,135.574L133.989,135.605L134.045,135.636L134.105,135.666L134.166,135.697L134.229,135.727L134.295,135.757L134.364,135.786L134.435,135.815L134.508,135.844L134.585,135.872L134.664,135.9L134.746,135.928L134.836,135.956L134.93,135.985L135.03,136.014L135.13,136.042L135.231,136.069L135.333,136.096L135.436,136.121L135.54,136.146L135.644,136.171L135.75,136.194L135.856,136.217L135.963,136.238L136.07,136.26L136.179,136.28L136.288,136.3L136.398,136.318L136.509,136.336L136.62,136.354L136.732,136.371L136.845,136.386L136.958,136.402L137.072,136.416L137.187,136.43L137.302,136.443L137.418,136.456L137.534,136.468L137.651,136.479L137.768,136.489L137.886,136.499L138.005,136.509L138.119,136.517L138.358,136.533L138.408,136.535L138.451,136.537L138.492,136.538L138.532,136.538L138.569,136.537L138.605,136.536L138.639,136.534L138.672,136.532L138.702,136.529L138.732,136.526L138.76,136.523L138.786,136.519L138.811,136.515L138.835,136.511L138.858,136.506L138.879,136.502L138.9,136.497L138.919,136.492L138.938,136.486L138.956,136.481L138.974,136.476L138.99,136.47L139.007,136.464L139.023,136.458L139.038,136.451L139.053,136.445L139.068,136.438L139.083,136.431L139.098,136.424L139.113,136.416L139.128,136.408L139.143,136.399L139.158,136.39L139.173,136.381L139.188,136.371L139.204,136.36L139.22,136.349L139.237,136.337L139.254,136.324L139.271,136.311L139.289,136.296L139.307,136.281L139.325,136.265L139.344,136.249L139.363,136.231L139.383,136.212L139.403,136.192L139.424,136.171L139.445,136.149L139.466,136.126L139.488,136.102L139.511,136.076L139.533,136.05L139.556,136.022L139.579,135.993L139.603,135.963L139.627,135.932L139.651,135.9L139.676,135.866L139.7,135.831L139.725,135.795L139.75,135.757L139.776,135.719L139.801,135.679L139.827,135.638L139.852,135.596L139.878,135.552L139.904,135.508L139.93,135.462L139.956,135.415L139.982,135.367L140.008,135.318L140.034,135.267L140.06,135.216L140.086,135.163L140.109,135.116L140.164,134.999L140.215,134.884L140.266,134.766L140.317,134.643L140.367,134.518L140.416,134.388L140.465,134.255L140.513,134.12L140.56,133.981L140.606,133.839L140.652,133.695L140.697,133.548L140.741,133.399L140.784,133.248L140.826,133.094L140.868,132.939L140.908,132.782L140.948,132.624L140.987,132.464L141.026,132.303L141.063,132.14L141.1,131.977L141.136,131.813L141.171,131.651L141.241,131.314L141.276,131.145L141.31,130.973L141.344,130.8L141.376,130.627L141.409,130.453L141.44,130.279L141.471,130.105L141.501,129.93L141.531,129.756L141.559,129.584L141.615,129.229L141.669,128.876L141.719,128.521L141.768,128.166L141.813,127.811L141.721,127.598L141.593,127.298L141.468,126.999L141.344,126.699L141.222,126.4L141.103,126.1L140.985,125.8L140.87,125.501L140.756,125.201L140.644,124.902L140.535,124.602L140.427,124.303L140.322,124.003L140.218,123.703L140.116,123.403L140.017,123.103L139.919,122.804L139.824,122.503L139.73,122.203L139.639,121.903L139.549,121.603L139.461,121.303L139.376,121.002L139.292,120.702L139.211,120.401L139.131,120.1L139.054,119.799L138.978,119.498L138.905,119.197L138.834,118.896L138.764,118.594L138.697,118.293L138.631,117.991L138.568,117.689L138.506,117.387L138.447,117.085L138.389,116.783L138.334,116.48L138.281,116.177L138.229,115.874L138.18,115.571L138.132,115.268L138.087,114.965L138.043,114.661L138.002,114.357L137.962,114.053L137.925,113.749L137.889,113.444L137.856,113.14L137.824,112.835L137.795,112.53L137.767,112.224L137.741,111.919L137.718,111.613L137.696,111.307L137.676,111L137.658,110.694L137.643,110.387L137.629,110.08L137.617,109.773L137.607,109.465L137.599,109.157L137.593,108.849L137.588,108.541L137.586,108.232L137.586,107.923L137.587,107.614L137.591,107.304L137.596,106.995L137.603,106.684L137.613,106.374L137.624,106.063L137.637,105.752L137.652,105.441L137.668,105.129L137.687,104.817L137.707,104.504L137.73,104.192L137.754,103.878L137.78,103.565L137.808,103.251L137.838,102.937L137.869,102.622L137.903,102.307L137.938,101.992L137.975,101.676L138.014,101.36L138.055,101.043L138.098,100.726L138.142,100.408L138.188,100.091L138.236,99.772L138.286,99.453L138.337,99.134L138.391,98.814L138.446,98.494L138.503,98.173L138.561,97.852L138.621,97.531L138.684,97.208L138.747,96.886L138.813,96.562L138.88,96.239L138.949,95.914L139.02,95.59L139.093,95.264L139.167,94.938L139.243,94.612L139.321,94.284L139.4,93.957L139.481,93.628L139.564,93.299L139.648,92.97L139.746,92.597L139.799,92.415L139.868,92.219L139.96,91.999L140.023,91.874L140.211,91.549L140.215,91.542L140.385,91.303L140.574,91.079L140.579,91.074L140.917,90.753L141.295,90.479L141.3,90.476L141.718,90.252L142.162,90.087L142.624,89.983L142.628,89.982L143.038,89.943L143.45,89.952L143.858,90.01L144.256,90.115L144.26,90.117L144.662,90.277L145.04,90.485L145.39,90.738L145.394,90.742L145.698,91.023L145.967,91.338L145.971,91.344L146.119,91.557L146.252,91.781L146.256,91.788L146.404,92.096L146.408,92.105L146.522,92.413L146.569,92.563L146.625,92.802L146.657,92.974L146.678,93.109L146.694,93.234L146.713,93.416L146.729,93.593L146.741,93.757L146.752,93.912L146.771,94.192L146.779,94.303L146.786,94.388L146.791,94.435L146.848,94.837L146.909,95.265L146.968,95.692L147.026,96.119L147.139,96.965L147.25,97.808L147.324,98.369L147.399,98.929L147.552,100.054L147.706,101.184L147.86,102.319L147.937,102.891L148.012,103.463L148.086,104.037L148.159,104.613L148.231,105.19L148.3,105.77L148.368,106.351L148.433,106.933L148.515,107.702L148.555,108.09L148.595,108.477L148.634,108.866L148.672,109.256L148.709,109.647L148.745,110.039L148.78,110.432L148.815,110.827L148.848,111.222L148.881,111.617L148.912,112.014L148.943,112.412L148.972,112.81L149,113.21L149.027,113.61L149.052,114.01L149.076,114.412L149.099,114.814L149.12,115.217L149.14,115.62L149.159,116.024L149.176,116.429L149.191,116.834L149.205,117.239L149.217,117.645L149.228,118.052L149.236,118.459L149.243,118.866L149.248,119.273L149.252,119.681L149.253,120.089L149.252,120.498L149.25,120.906L149.245,121.315L149.238,121.724L149.229,122.133L149.218,122.543L149.205,122.952L149.189,123.361L149.172,123.771L149.151,124.18L149.129,124.589L149.104,124.999L149.076,125.408L149.046,125.817L149.013,126.226L148.978,126.635L148.976,126.656L148.993,126.691L149.12,126.958L149.25,127.225L149.381,127.493L149.515,127.761L149.65,128.029L149.788,128.298L149.927,128.568L150.069,128.839L150.194,129.074L150.32,129.31L150.447,129.546L150.575,129.78L150.704,130.014L150.834,130.246L150.965,130.476L151.098,130.705L151.231,130.932L151.365,131.156L151.5,131.378L151.636,131.597L151.776,131.817L151.843,131.92L151.912,132.026L151.981,132.131L152.051,132.235L152.12,132.338L152.19,132.44L152.26,132.541L152.331,132.641L152.401,132.74L152.472,132.838L152.542,132.934L152.613,133.03L152.684,133.124L152.755,133.217L152.826,133.309L152.898,133.399L152.969,133.488L153.04,133.576L153.112,133.663L153.183,133.747L153.254,133.831L153.326,133.913L153.397,133.994L153.468,134.073L153.54,134.15L153.611,134.226L153.682,134.3L153.753,134.373L153.824,134.444L153.894,134.514L153.965,134.581L154.035,134.647L154.105,134.712L154.175,134.774L154.244,134.835L154.313,134.895L154.382,134.952L154.451,135.008L154.519,135.062L154.587,135.114L154.654,135.165L154.721,135.214L154.787,135.261L154.853,135.306L154.919,135.35L154.984,135.392L155.049,135.432L155.089,135.456L155.055,135.224L155.054,134.725L155.124,134.23L155.263,133.751L155.47,133.296L155.739,132.875L156.065,132.497L156.442,132.169L156.861,131.899L157.315,131.69L157.794,131.548L158.288,131.476L158.788,131.475L159.126,131.499L159.476,131.525L159.824,131.554L160.171,131.585L160.517,131.618L160.862,131.652L161.206,131.689L161.548,131.727L161.89,131.768L162.23,131.809L162.569,131.853L162.907,131.898L163.222,131.941L163.255,131.898L163.327,131.804L163.398,131.709L163.469,131.614L163.54,131.518L163.609,131.42L163.679,131.322L163.748,131.223L163.816,131.123L163.884,131.023L163.952,130.921L164.019,130.818L164.085,130.715L164.151,130.611L164.217,130.506L164.282,130.4L164.346,130.293L164.41,130.185L164.474,130.077L164.537,129.968L164.599,129.858L164.661,129.747L164.723,129.635L164.784,129.523L164.844,129.409L164.904,129.296L164.964,129.181L165.023,129.065L165.081,128.949L165.139,128.832L165.197,128.714L165.254,128.595L165.31,128.476L165.366,128.356L165.421,128.235L165.476,128.113L165.531,127.991L165.584,127.868L165.638,127.745L165.691,127.62L165.743,127.495L165.795,127.37L165.846,127.244L165.897,127.117L165.947,126.989L165.997,126.861L166.046,126.732L166.095,126.603L166.143,126.472L166.191,126.342L166.238,126.21L166.284,126.078L166.33,125.946L166.375,125.817L166.466,125.545L166.553,125.276L166.639,125.004L166.722,124.73L166.803,124.454L166.883,124.176L166.96,123.896L167.035,123.615L167.108,123.332L167.179,123.047L167.249,122.76L167.316,122.473L167.381,122.184L167.444,121.893L167.505,121.601L167.564,121.308L167.622,121.014L167.677,120.719L167.731,120.423L167.782,120.126L167.832,119.828L167.879,119.529L167.925,119.23L167.969,118.93L168.011,118.629L168.052,118.328L168.09,118.026L168.127,117.724L168.162,117.422L168.195,117.12L168.227,116.817L168.257,116.515L168.285,116.212L168.311,115.91L168.336,115.607L168.359,115.305L168.381,115.003L168.401,114.701L168.419,114.4L168.436,114.1L168.451,113.799L168.465,113.5L168.477,113.201L168.487,112.903L168.497,112.606L168.504,112.309L168.511,112.014L168.516,111.72L168.519,111.426L168.522,111.134L168.522,110.843L168.522,110.554L168.52,110.266L168.517,109.979L168.513,109.694L168.508,109.41L168.501,109.128L168.493,108.848L168.484,108.569L168.474,108.293L168.463,108.018L168.45,107.745L168.437,107.475L168.422,107.206L168.407,106.94L168.39,106.676L168.373,106.415L168.355,106.155L168.335,105.899L168.315,105.645L168.294,105.393L168.272,105.144L168.249,104.899L168.226,104.655L168.201,104.415L168.176,104.178L168.15,103.943L168.12,103.672L168.09,103.417L168.061,103.176L168.033,102.947L168.005,102.728L167.977,102.517L167.949,102.31L167.921,102.108L167.862,101.693L167.797,101.259L167.724,100.787L167.644,100.272L167.628,100.176L167.61,100.071L167.587,99.945L167.56,99.804L167.494,99.468L167.418,99.084L167.333,98.656L167.244,98.193L167.197,97.944L167.15,97.691L167.103,97.429L167.056,97.161L167.01,96.887L166.965,96.607L166.921,96.321L166.879,96.03L166.838,95.735L166.8,95.435L166.765,95.136L166.747,94.978L166.731,94.824L166.716,94.669L166.702,94.513L166.688,94.356L166.676,94.199L166.664,94.04L166.654,93.881L166.645,93.721L166.636,93.561L166.629,93.4L166.624,93.238L166.62,93.076L166.617,92.913L166.615,92.75L166.615,92.585L166.617,92.42L166.621,92.255L166.626,92.089L166.633,91.922L166.642,91.754L166.653,91.586L166.667,91.418L166.682,91.248L166.7,91.078L166.721,90.907L166.744,90.735L166.771,90.563L166.8,90.39L166.832,90.216L166.868,90.04L166.907,89.865L166.95,89.688L166.997,89.51L167.048,89.332L167.104,89.153L167.165,88.972L167.231,88.791L167.302,88.61L167.379,88.427L167.463,88.245L167.546,88.074L167.6,87.971L167.649,87.879L167.7,87.788L167.753,87.697L167.807,87.606L167.864,87.515L167.923,87.424L167.983,87.333L168.046,87.244L168.11,87.154L168.177,87.065L168.246,86.976L168.317,86.888L168.39,86.801L168.465,86.715L168.543,86.629L168.622,86.545L168.704,86.461L168.788,86.379L168.874,86.297L168.963,86.217L169.053,86.139L169.145,86.063L169.239,85.987L169.336,85.913L169.434,85.841L169.534,85.771L169.636,85.703L169.74,85.637L169.845,85.573L169.951,85.511L170.06,85.452L170.17,85.394L170.281,85.339L170.393,85.286L170.506,85.236L170.621,85.188L170.735,85.142L170.851,85.099L170.968,85.058L171.086,85.02L171.204,84.985L171.322,84.952L171.441,84.921L171.561,84.892L171.68,84.867L171.799,84.843L171.919,84.822L172.039,84.803L172.159,84.786L172.279,84.772L172.398,84.76L172.518,84.75L172.637,84.742L172.757,84.736L172.876,84.732L172.994,84.73L173.113,84.73L173.232,84.732L173.35,84.736L173.468,84.741L173.585,84.749L173.703,84.758L173.82,84.769L173.936,84.781L174.053,84.795L174.17,84.811L174.286,84.828L174.402,84.847L174.518,84.867L174.633,84.888L174.749,84.912L174.865,84.936L174.98,84.962L175.095,84.989L175.211,85.018L175.326,85.048L175.441,85.08L175.557,85.112L175.672,85.146L175.789,85.182L175.905,85.219L176.02,85.257L176.135,85.296L176.249,85.336L176.363,85.377L176.476,85.42L176.588,85.463L176.7,85.508L176.811,85.553L176.921,85.6L177.03,85.647L177.139,85.696L177.248,85.746L177.355,85.796L177.462,85.848L177.568,85.9L177.674,85.954L177.778,86.008L177.882,86.063L177.986,86.119L178.088,86.176L178.191,86.234L178.292,86.293L178.392,86.352L178.492,86.413L178.591,86.474L178.69,86.536L178.787,86.598L178.891,86.666L179.076,86.791L179.266,86.923L179.452,87.057L179.636,87.195L179.817,87.335L179.995,87.477L180.17,87.622L180.343,87.77L180.514,87.919L180.681,88.071L180.847,88.224L181.01,88.38L181.17,88.538L181.328,88.697L181.484,88.858L181.637,89.021L181.788,89.186L181.937,89.352L182.084,89.52L182.228,89.689L182.37,89.86L182.511,90.032L182.649,90.206L182.785,90.381L182.92,90.557L183.052,90.734L183.183,90.912L183.312,91.092L183.439,91.272L183.564,91.454L183.687,91.636L183.809,91.82L183.929,92.004L184.047,92.189L184.164,92.375L184.28,92.562L184.393,92.749L184.506,92.938L184.616,93.127L184.725,93.316L184.833,93.506L184.94,93.697L185.045,93.888L185.148,94.08L185.251,94.272L185.351,94.464L185.451,94.657L185.549,94.85L185.647,95.044L185.742,95.237L185.837,95.431L185.931,95.625L186.023,95.819L186.114,96.014L186.204,96.208L186.293,96.403L186.38,96.597L186.467,96.792L186.553,96.986L186.637,97.18L186.721,97.374L186.803,97.568L186.886,97.765L187.044,98.148L187.2,98.533L187.352,98.917L187.501,99.298L187.646,99.677L187.787,100.053L187.925,100.426L188.06,100.796L188.192,101.163L188.32,101.525L188.446,101.883L188.568,102.237L188.688,102.585L188.804,102.928L188.919,103.266L189.138,103.919L189.546,105.142L189.736,105.705L189.827,105.97L189.917,106.232L190.049,106.613L190.182,107.001L190.444,107.77L190.703,108.537L190.959,109.301L191.214,110.06L191.469,110.815L191.724,111.567L191.852,111.939L191.978,112.307L192.07,112.569L192.163,112.829L192.259,113.09L192.357,113.354L192.457,113.619L192.559,113.886L192.663,114.155L192.768,114.424L192.985,114.975L193.205,115.532L193.428,116.096L193.54,116.384L193.653,116.673L193.765,116.964L193.877,117.258L193.989,117.555L194.099,117.855L194.209,118.157L194.318,118.463L194.425,118.771L194.53,119.082L194.633,119.397L194.733,119.71L194.784,119.874L194.833,120.035L194.881,120.197L194.929,120.359L194.976,120.523L195.021,120.687L195.067,120.852L195.111,121.018L195.154,121.185L195.197,121.353L195.238,121.521L195.278,121.688L195.33,121.912L195.381,122.136L195.432,122.364L195.482,122.594L195.532,122.827L195.581,123.063L195.628,123.301L195.675,123.542L195.721,123.786L195.766,124.032L195.809,124.28L195.851,124.531L195.891,124.783L195.93,125.038L195.966,125.295L196.001,125.554L196.034,125.815L196.064,126.078L196.092,126.343L196.117,126.609L196.14,126.877L196.16,127.147L196.178,127.419L196.192,127.692L196.203,127.966L196.21,128.236L196.212,128.38L196.214,128.519L196.215,128.659L196.214,128.798L196.213,128.938L196.211,129.078L196.207,129.218L196.203,129.359L196.197,129.5L196.191,129.642L196.183,129.783L196.175,129.925L196.165,130.068L196.154,130.21L196.141,130.353L196.128,130.496L196.113,130.639L196.097,130.782L196.08,130.926L196.061,131.069L196.041,131.213L196.02,131.358L195.997,131.502L195.973,131.646L195.947,131.791L195.92,131.936L195.891,132.081L195.861,132.225L195.829,132.371L195.796,132.516L195.761,132.661L195.724,132.806L195.685,132.951L195.645,133.097L195.603,133.242L195.559,133.387L195.514,133.532L195.466,133.677L195.417,133.821L195.366,133.966L195.313,134.111L195.258,134.255L195.201,134.399L195.142,134.542L195.08,134.686L195.017,134.829L194.952,134.972L194.884,135.114L194.815,135.256L194.743,135.398L194.669,135.538L194.593,135.679L194.515,135.818L194.435,135.957L194.352,136.096L194.267,136.233L194.18,136.37L194.09,136.506L193.998,136.641L193.904,136.776L193.808,136.909L193.709,137.041L193.608,137.172L193.505,137.302L193.399,137.432L193.291,137.559L193.181,137.686L193.069,137.811L192.954,137.935L192.837,138.058L192.717,138.179L192.596,138.299L192.472,138.417L192.346,138.534L192.218,138.649L192.09,138.761L191.989,138.847L191.89,138.929L191.789,139.01L191.688,139.09L191.587,139.168L191.485,139.245L191.382,139.321L191.279,139.395L191.175,139.468L191.071,139.539L190.966,139.609L190.861,139.678L190.755,139.745L190.649,139.811L190.542,139.876L190.436,139.939L190.328,140.002L190.22,140.062L190.113,140.122L190.004,140.18L189.896,140.237L189.787,140.293L189.678,140.347L189.568,140.4L189.459,140.452L189.349,140.503L189.239,140.552L189.129,140.601L189.019,140.648L188.908,140.694L188.798,140.739L188.687,140.783L188.576,140.826L188.465,140.867L188.354,140.908L188.236,140.95L188.021,141.023L187.799,141.095L187.577,141.162L187.354,141.226L187.132,141.286L186.91,141.342L186.688,141.395L186.466,141.444L186.245,141.491L186.024,141.533L185.803,141.573L185.583,141.61L185.364,141.643L185.145,141.674L184.926,141.702L184.708,141.728L184.491,141.751L184.275,141.771L184.059,141.789L183.844,141.805L183.63,141.818L183.417,141.83L183.205,141.839L182.994,141.846L182.783,141.851L182.574,141.855L182.366,141.857L182.159,141.857L181.952,141.855L181.747,141.852L181.544,141.847L181.341,141.841L181.14,141.833L180.94,141.825L180.741,141.814L180.544,141.803L180.348,141.791L180.154,141.777L179.961,141.763L179.77,141.748L179.58,141.731L179.392,141.714L179.206,141.696L179.018,141.677L178.66,141.639L178.314,141.599L177.972,141.558L177.631,141.515L177.291,141.471L176.951,141.426L176.614,141.378L176.277,141.33L175.941,141.28L175.606,141.229L175.273,141.177L174.94,141.124L174.609,141.07L174.278,141.015L173.948,140.959L173.62,140.903L173.29,140.845L172.64,140.729L171.99,140.61L171.345,140.49L170.702,140.369L170.063,140.247L169.427,140.126L168.161,139.884L167.533,139.765L166.907,139.648L166.284,139.533L165.662,139.421L165.647,139.433L165.509,139.544L165.371,139.654L165.231,139.763L165.09,139.87L164.948,139.977L164.805,140.082L164.66,140.185L164.515,140.288L164.368,140.389L164.219,140.488L164.07,140.587L163.919,140.684L163.767,140.779L163.614,140.874L163.46,140.967L163.305,141.058L163.148,141.148L162.99,141.237L162.831,141.324L162.671,141.409L162.51,141.493L162.347,141.576L162.18,141.659L161.975,141.757L161.766,141.853L161.558,141.946L161.349,142.035L161.139,142.119L160.93,142.2L160.721,142.278L160.511,142.351L160.301,142.42L160.091,142.486L159.881,142.547L159.671,142.605L159.461,142.658L159.251,142.708L159.041,142.753L158.83,142.794L158.62,142.832L158.41,142.865L158.201,142.894L157.991,142.918L157.782,142.939L157.573,142.956L157.365,142.968L157.157,142.976L156.95,142.98L156.744,142.98L156.538,142.976L156.333,142.967L156.129,142.955L155.926,142.938L155.725,142.918L155.524,142.893L155.325,142.865L155.127,142.833L154.931,142.797L154.736,142.757L154.543,142.714L154.351,142.667L154.161,142.616L153.973,142.562L153.787,142.505L153.603,142.444L153.42,142.381L153.24,142.314L153.061,142.244L152.885,142.171L152.71,142.096L152.538,142.018L152.368,141.937L152.2,141.853L152.034,141.767L151.87,141.679L151.708,141.589L151.549,141.496L151.391,141.401L151.236,141.304L151.082,141.205L150.931,141.104L150.782,141.002L150.634,140.897L150.489,140.791L150.346,140.684L150.204,140.574L150.065,140.464L149.927,140.352L149.791,140.238L149.657,140.123L149.525,140.007L149.395,139.89L149.266,139.771L149.139,139.652L149.013,139.531L148.89,139.41L148.768,139.287L148.647,139.163L148.528,139.039L148.41,138.913L148.294,138.787L148.18,138.66L148.066,138.532L147.955,138.404L147.844,138.275L147.735,138.145L147.627,138.015L147.521,137.883L147.415,137.752L147.311,137.62L147.208,137.487L147.107,137.354L147.006,137.221L146.907,137.087L146.888,137.062L146.805,137.271L146.716,137.486L146.624,137.702L146.527,137.917L146.429,138.126L146.374,138.24L146.32,138.348L146.266,138.455L146.211,138.563L146.154,138.67L146.096,138.777L146.037,138.884L145.976,138.991L145.914,139.097L145.851,139.204L145.786,139.31L145.72,139.416L145.653,139.522L145.584,139.627L145.513,139.732L145.441,139.837L145.367,139.941L145.292,140.045L145.215,140.148L145.136,140.251L145.056,140.353L144.974,140.455L144.89,140.556L144.804,140.657L144.716,140.757L144.627,140.856L144.536,140.954L144.442,141.052L144.347,141.148L144.25,141.244L144.15,141.338L144.049,141.432L143.946,141.524L143.84,141.615L143.733,141.705L143.623,141.793L143.512,141.88L143.398,141.966L143.282,142.05L143.165,142.132L143.045,142.213L142.923,142.292L142.8,142.369L142.674,142.443L142.547,142.516L142.417,142.587L142.286,142.656L142.153,142.723L142.018,142.787L141.881,142.849L141.743,142.908L141.603,142.965L141.462,143.02L141.319,143.071L141.175,143.121L141.03,143.167L140.883,143.211L140.735,143.253L140.586,143.291L140.436,143.327L140.285,143.36L140.133,143.39L139.98,143.417L139.826,143.442L139.672,143.464L139.517,143.482L139.362,143.499L139.206,143.512L139.049,143.523L138.892,143.53L138.734,143.535L138.576,143.538L138.418,143.537L138.26,143.534L138.101,143.529L137.947,143.521L137.636,143.5L137.475,143.489L137.319,143.476L137.161,143.463L137.004,143.449L136.846,143.434L136.687,143.418L136.528,143.4L136.369,143.382L136.209,143.363L136.048,143.342L135.888,143.321L135.726,143.298L135.565,143.274L135.403,143.249L135.241,143.222L135.078,143.194L134.915,143.165L134.752,143.134L134.588,143.102L134.424,143.069L134.26,143.034L134.096,142.997L133.931,142.959L133.767,142.919L133.601,142.878L133.436,142.835L133.271,142.79L133.106,142.744L132.94,142.696L132.77,142.644L132.582,142.585L132.392,142.521L132.203,142.455L132.017,142.386L131.832,142.314L131.649,142.239L131.469,142.161L131.29,142.08L131.114,141.997L130.94,141.91L130.768,141.821L130.598,141.73L130.431,141.635L130.266,141.537L130.103,141.437L129.943,141.335L129.786,141.229L129.631,141.121L129.479,141.011L129.329,140.898L129.182,140.782L129.038,140.665L128.897,140.545L128.758,140.423L128.623,140.298L128.49,140.172L128.361,140.044L128.234,139.914L128.11,139.782L127.989,139.648L127.872,139.513L127.757,139.377L127.645,139.239L127.537,139.099L127.431,138.959L127.328,138.817L127.229,138.674L127.132,138.53L127.038,138.386L126.947,138.24L126.859,138.094L126.773,137.947L126.691,137.799L126.611,137.651L126.534,137.503L126.459,137.354L126.387,137.205L126.317,137.055L126.25,136.905L126.185,136.755L126.123,136.605L126.063,136.455L126.005,136.305L125.949,136.154L125.896,136.004L125.844,135.853L125.794,135.703L125.747,135.553L125.701,135.403L125.657,135.253L125.615,135.103L125.575,134.954L125.536,134.804L125.499,134.655L125.463,134.506L125.429,134.357L125.397,134.209L125.366,134.06L125.336,133.912L125.307,133.765L125.28,133.618L125.254,133.47L125.23,133.324L125.206,133.177L125.184,133.031L125.163,132.886L125.142,132.74L125.123,132.595L125.105,132.451L125.087,132.302L125.055,132.02L125.026,131.735L125,131.451L124.977,131.169L124.956,130.889L124.938,130.611L124.921,130.335L124.907,130.062L124.893,129.79L124.882,129.521L124.871,129.255L124.861,128.989L124.843,128.473L124.827,127.966L124.811,127.472L124.793,126.99L124.783,126.759L124.773,126.53L124.761,126.305L124.748,126.075L124.724,125.655L124.702,125.226L124.681,124.796L124.663,124.366L124.646,123.936L124.631,123.506L124.618,123.077L124.606,122.647L124.595,122.218L124.585,121.789L124.576,121.361L124.569,120.931L124.555,120.078L124.544,119.224L124.522,117.523L124.511,116.677L124.497,115.833L124.489,115.414L124.48,114.995L124.471,114.576L124.46,114.159L124.448,113.743L124.435,113.328L124.42,112.915L124.404,112.502L124.386,112.091L124.366,111.681L124.345,111.273L124.321,110.866L124.296,110.46L124.268,110.057L124.238,109.654L124.206,109.254L124.171,108.855L124.133,108.455L124.114,108.26L124.093,108.062L124.072,107.865L124.05,107.669L124.028,107.473L124.005,107.278L123.981,107.083L123.956,106.888L123.93,106.694L123.904,106.5L123.877,106.308L123.849,106.115L123.82,105.923L123.791,105.732L123.76,105.541L123.729,105.35L123.697,105.161L123.664,104.972L123.63,104.783L123.595,104.595L123.56,104.407L123.523,104.22L123.486,104.034L123.447,103.848L123.408,103.663L123.367,103.478L123.326,103.294L123.284,103.111L123.241,102.928L123.196,102.746L123.151,102.564L123.105,102.383L123.057,102.203L123.009,102.023L122.959,101.844L122.909,101.665L122.857,101.488L122.805,101.31L122.751,101.134L122.696,100.958L122.64,100.782L122.583,100.608L122.525,100.434L122.466,100.262L122.406,100.093L122.345,99.925L122.282,99.757L122.218,99.589L122.151,99.421L122.083,99.253L122.013,99.085L121.941,98.917L121.868,98.749L121.792,98.58L121.715,98.412L121.637,98.243L121.556,98.074L121.474,97.906L121.391,97.737L121.306,97.568L121.219,97.399L121.131,97.23L121.041,97.061L120.95,96.892L120.857,96.723L120.763,96.554L120.667,96.384L120.57,96.215L120.472,96.046L120.372,95.876L120.271,95.707L120.169,95.538L120.066,95.368L119.962,95.199L119.856,95.03L119.749,94.86L119.641,94.691L119.532,94.522L119.422,94.352L119.311,94.183L119.199,94.014L119.086,93.844L118.972,93.675L118.859,93.508L118.626,93.167L118.391,92.829L118.153,92.49L117.912,92.152L117.67,91.814L117.425,91.476L117.179,91.138L117.11,91.044L117.109,91.047L117.104,91.119L117.099,91.191L117.095,91.265L117.091,91.339L117.088,91.414L117.085,91.49L117.084,91.567L117.082,91.644L117.081,91.716L117.081,91.881L117.083,92.042L117.088,92.207L117.094,92.374L117.102,92.543L117.113,92.716L117.125,92.891L117.14,93.068L117.156,93.248L117.174,93.431L117.194,93.616L117.215,93.803L117.238,93.992L117.262,94.183L117.288,94.377L117.314,94.572L117.342,94.77L117.371,94.967L117.432,95.375L117.496,95.786L117.628,96.629L117.694,97.061L117.759,97.495L117.791,97.719L117.822,97.942L117.852,98.166L117.881,98.392L117.909,98.62L117.936,98.849L117.961,99.079L117.984,99.312L118.006,99.545L118.025,99.781L118.043,100.018L118.058,100.257L118.07,100.497L118.079,100.739L118.085,100.983L118.088,101.22L118.088,101.397L118.088,101.57L118.084,101.901L118.078,102.236L118.068,102.569L118.056,102.9L118.04,103.23L118.022,103.559L118.002,103.886L117.979,104.211L117.953,104.536L117.926,104.858L117.897,105.179L117.866,105.499L117.833,105.818L117.798,106.135L117.763,106.45L117.725,106.765L117.687,107.077L117.647,107.389L117.606,107.699L117.565,108.008L117.522,108.318L117.436,108.927L117.348,109.534L117.259,110.136L117.082,111.33L116.954,112.188L116.82,113.079L116.75,113.538L116.678,114.003L116.603,114.475L116.526,114.954L116.446,115.438L116.364,115.929L116.279,116.425L116.191,116.925L116.099,117.431L116.004,117.941L115.906,118.455L115.804,118.971L115.752,119.233L115.698,119.494L115.644,119.756L115.588,120.019L115.532,120.282L115.474,120.546L115.416,120.81L115.356,121.075L115.295,121.341L115.233,121.607L115.17,121.873L115.106,122.14L115.04,122.408L114.973,122.675L114.905,122.943L114.836,123.212L114.765,123.48L114.693,123.749L114.62,124.017L114.545,124.286L114.469,124.555L114.391,124.824L114.312,125.093L114.232,125.362L114.15,125.631L114.066,125.899L113.981,126.168L113.894,126.436L113.806,126.704L113.716,126.972L113.625,127.24L113.532,127.507L113.437,127.774L113.34,128.04L113.242,128.306L113.141,128.571L113.039,128.836L112.935,129.1L112.829,129.364L112.722,129.627L112.612,129.889L112.5,130.15L112.387,130.411L112.271,130.671L112.153,130.93L112.033,131.188L111.911,131.446L111.787,131.702L111.661,131.957L111.532,132.211L111.401,132.464L111.268,132.716L111.132,132.967L110.994,133.217L110.853,133.465L110.71,133.712L110.565,133.957L110.417,134.202L110.267,134.444L110.113,134.685L109.958,134.925L109.799,135.163L109.638,135.399L109.474,135.634L109.307,135.867L109.137,136.097L108.968,136.322L108.877,136.44L108.789,136.554L108.7,136.666L108.61,136.779L108.52,136.89L108.429,137.002L108.337,137.112L108.244,137.222L108.151,137.332L108.057,137.441L107.962,137.549L107.866,137.657L107.769,137.765L107.672,137.871L107.574,137.977L107.475,138.083L107.375,138.188L107.275,138.292L107.173,138.396L107.071,138.498L106.968,138.601L106.864,138.702L106.76,138.803L106.654,138.903L106.548,139.003L106.441,139.102L106.333,139.2L106.224,139.297L106.114,139.394L106.004,139.49L105.892,139.585L105.78,139.679L105.667,139.772L105.553,139.865L105.438,139.957L105.323,140.048L105.206,140.138L105.089,140.228L104.971,140.317L104.852,140.404L104.732,140.491L104.611,140.577L104.49,140.662L104.367,140.746L104.244,140.83L104.12,140.912L103.995,140.993L103.869,141.074L103.742,141.153L103.614,141.232L103.486,141.309L103.357,141.386L103.226,141.461L103.095,141.536L102.964,141.609L102.831,141.682L102.697,141.753L102.559,141.826L102.46,141.876L102.356,141.927L102.251,141.977L102.145,142.025L102.039,142.072L101.931,142.118L101.823,142.161L101.713,142.203L101.603,142.244L101.491,142.283L101.379,142.32L101.265,142.355L101.151,142.388L101.035,142.419L100.918,142.449L100.8,142.476L100.682,142.501L100.562,142.524L100.441,142.545L100.32,142.563L100.197,142.579L100.073,142.592L99.949,142.603L99.825,142.611L99.699,142.617L99.573,142.62L99.447,142.62L99.32,142.617L99.193,142.611L99.066,142.602L98.939,142.591L98.812,142.576L98.685,142.559L98.559,142.538L98.434,142.515L98.308,142.488L98.184,142.459L98.061,142.427L97.939,142.392L97.818,142.354L97.698,142.314L97.579,142.271L97.463,142.225L97.347,142.177L97.234,142.127L97.123,142.074L97.013,142.019L96.905,141.963L96.799,141.904L96.695,141.843L96.594,141.781L96.494,141.717L96.397,141.652L96.302,141.585L96.209,141.517L96.118,141.447L96.029,141.376L95.943,141.305L95.858,141.232L95.776,141.159L95.696,141.085L95.617,141.01L95.541,140.935L95.467,140.858L95.395,140.782L95.324,140.705L95.255,140.627L95.18,140.54L95.06,140.393L94.938,140.236L94.823,140.077L94.713,139.918L94.609,139.759L94.51,139.599L94.416,139.439L94.326,139.279L94.241,139.118L94.159,138.958L94.082,138.798L94.007,138.637L93.937,138.477L93.869,138.316L93.804,138.156L93.742,137.996L93.683,137.835L93.626,137.674L93.572,137.514L93.519,137.353L93.469,137.193L93.421,137.032L93.375,136.871L93.331,136.711L93.288,136.55L93.247,136.389L93.208,136.228L93.17,136.068L93.134,135.907L93.099,135.746L93.065,135.586L93.033,135.425L93.002,135.265L92.973,135.104L92.944,134.944L92.917,134.785L92.891,134.625L92.865,134.466L92.841,134.307L92.818,134.148L92.796,133.99L92.774,133.828L92.735,133.519L92.698,133.207L92.665,132.898L92.635,132.592L92.607,132.29L92.582,131.992L92.559,131.698L92.539,131.409L92.521,131.125L92.504,130.847L92.489,130.576L92.476,130.311L92.465,130.054L92.454,129.803L92.437,129.334L92.422,128.902L92.41,128.516L92.4,128.183L92.389,127.907L92.385,127.805L92.379,127.706L92.371,127.563L92.363,127.404L92.356,127.245L92.349,127.08L92.339,126.762L92.332,126.437L92.328,126.108L92.326,125.776L92.327,125.442L92.331,125.104L92.337,124.763L92.345,124.42L92.356,124.073L92.369,123.724L92.384,123.372L92.4,123.017L92.419,122.659L92.439,122.299L92.461,121.936L92.485,121.571L92.51,121.203L92.536,120.833L92.564,120.461L92.593,120.086L92.623,119.71L92.654,119.331L92.686,118.951L92.72,118.567L92.788,117.8L92.859,117.025L92.932,116.245L93.082,114.674L93.157,113.884L93.231,113.094L93.305,112.303L93.377,111.512L93.446,110.722L93.48,110.33L93.512,109.937L93.544,109.545L93.575,109.155L93.605,108.765L93.633,108.377L93.661,107.99L93.687,107.605L93.712,107.222L93.735,106.84L93.757,106.461L93.777,106.083L93.796,105.708L93.813,105.336L93.828,104.966L93.841,104.599L93.852,104.234L93.862,103.873L93.869,103.515L93.874,103.16L93.877,102.809L93.878,102.462L93.876,102.118L93.873,101.779L93.866,101.443L93.857,101.112L93.846,100.782L93.84,100.624L93.832,100.464L93.825,100.305L93.816,100.147L93.807,99.99L93.797,99.835L93.786,99.681L93.775,99.529L93.763,99.377L93.751,99.228L93.738,99.079L93.724,98.932L93.709,98.787L93.694,98.643L93.678,98.5L93.662,98.36L93.644,98.22L93.626,98.082L93.608,97.946L93.588,97.812L93.568,97.679L93.548,97.548L93.527,97.419L93.505,97.291L93.482,97.165L93.459,97.041L93.435,96.919L93.41,96.799L93.385,96.681L93.359,96.564L93.333,96.45L93.306,96.337L93.279,96.227L93.251,96.118L93.222,96.012L93.193,95.908L93.163,95.806L93.133,95.706L93.102,95.608L93.071,95.512L93.04,95.419L93.008,95.327L92.976,95.238L92.943,95.151L92.911,95.067L92.877,94.985L92.844,94.905L92.81,94.827L92.777,94.752L92.743,94.679L92.709,94.609L92.674,94.541L92.64,94.475L92.606,94.411L92.572,94.35L92.538,94.291L92.504,94.234L92.47,94.18L92.437,94.128L92.403,94.078L92.37,94.03L92.337,93.984L92.305,93.941L92.272,93.899L92.24,93.86L92.209,93.822L92.178,93.787L92.147,93.753L92.116,93.72L92.086,93.69L92.056,93.661L92.027,93.633L91.997,93.607L91.969,93.582L91.94,93.558L91.911,93.536L91.883,93.515L91.854,93.494L91.825,93.474L91.796,93.456L91.767,93.438L91.738,93.42L91.708,93.404L91.677,93.387L91.646,93.372L91.614,93.357L91.581,93.342L91.547,93.327L91.542,93.326L91.501,93.382L91.424,93.49L91.348,93.598L91.274,93.707L91.201,93.816L91.129,93.927L91.058,94.038L90.989,94.149L90.922,94.261L90.855,94.374L90.791,94.487L90.727,94.6L90.662,94.721L90.474,95.074L90.286,95.431L90.1,95.787L89.918,96.141L89.739,96.494L89.563,96.848L89.478,97.021L89.393,97.195L89.308,97.37L89.225,97.544L89.143,97.717L89.062,97.891L88.982,98.064L88.903,98.236L88.825,98.408L88.748,98.58L88.672,98.752L88.598,98.923L88.524,99.094L88.452,99.265L88.381,99.435L88.311,99.605L88.243,99.775L88.175,99.944L88.109,100.114L88.045,100.282L87.981,100.451L87.919,100.619L87.859,100.787L87.799,100.955L87.741,101.123L87.684,101.29L87.629,101.457L87.575,101.624L87.523,101.79L87.472,101.957L87.422,102.123L87.374,102.289L87.328,102.455L87.283,102.62L87.239,102.786L87.197,102.951L87.156,103.116L87.117,103.281L87.08,103.446L87.044,103.611L87.009,103.775L86.976,103.94L86.945,104.105L86.915,104.269L86.887,104.434L86.861,104.598L86.836,104.763L86.813,104.927L86.791,105.092L86.772,105.256L86.753,105.421L86.735,105.601L86.697,105.986L86.655,106.386L86.61,106.787L86.562,107.187L86.511,107.588L86.457,107.989L86.4,108.39L86.341,108.791L86.278,109.191L86.211,109.592L86.142,109.992L86.07,110.389L86.032,110.592L85.994,110.792L85.955,110.992L85.915,111.191L85.875,111.391L85.833,111.59L85.791,111.79L85.748,111.989L85.704,112.188L85.659,112.387L85.614,112.585L85.567,112.784L85.52,112.983L85.472,113.181L85.423,113.379L85.373,113.577L85.322,113.775L85.27,113.972L85.218,114.169L85.164,114.367L85.11,114.564L85.055,114.76L84.999,114.957L84.942,115.153L84.884,115.349L84.825,115.545L84.765,115.74L84.705,115.935L84.643,116.13L84.581,116.325L84.517,116.519L84.453,116.714L84.388,116.907L84.321,117.101L84.254,117.294L84.186,117.487L84.117,117.679L84.047,117.872L83.975,118.063L83.903,118.255L83.83,118.446L83.756,118.637L83.681,118.827L83.605,119.017L83.528,119.207L83.45,119.396L83.371,119.585L83.291,119.773L83.209,119.961L83.127,120.149L83.044,120.336L82.96,120.523L82.874,120.709L82.788,120.894L82.701,121.08L82.612,121.264L82.523,121.449L82.432,121.633L82.34,121.816L82.247,121.999L82.154,122.181L82.059,122.363L81.962,122.544L81.865,122.725L81.767,122.905L81.668,123.084L81.567,123.263L81.465,123.442L81.362,123.62L81.259,123.797L81.154,123.973L81.047,124.149L80.94,124.325L80.831,124.499L80.722,124.673L80.611,124.847L80.499,125.019L80.386,125.192L80.271,125.363L80.156,125.534L80.039,125.704L79.921,125.873L79.802,126.041L79.681,126.209L79.56,126.376L79.437,126.542L79.313,126.708L79.188,126.873L79.061,127.037L78.933,127.2L78.804,127.362L78.674,127.523L78.543,127.684L78.41,127.844L78.276,128.003L78.141,128.161L78.005,128.318L77.867,128.475L77.728,128.63L77.588,128.784L77.446,128.938L77.304,129.091L77.159,129.242L77.016,129.391L76.794,129.619L76.565,129.851L76.327,130.09L76.08,130.335L75.827,130.581L75.693,130.71L75.559,130.837L75.424,130.965L75.286,131.093L75.146,131.222L75.004,131.351L74.86,131.48L74.714,131.61L74.566,131.74L74.415,131.87L74.263,132L74.108,132.129L73.951,132.259L73.792,132.388L73.63,132.516L73.467,132.644L73.301,132.771L73.133,132.897L72.963,133.023L72.79,133.147L72.615,133.27L72.438,133.392L72.258,133.513L72.076,133.632L71.891,133.749L71.704,133.865L71.514,133.979L71.321,134.091L71.126,134.2L70.928,134.308L70.727,134.413L70.523,134.515L70.317,134.614L70.114,134.708L70.001,134.758L69.894,134.804L69.787,134.849L69.678,134.894L69.569,134.938L69.459,134.98L69.348,135.022L69.237,135.063L69.124,135.103L69.011,135.142L68.897,135.18L68.782,135.216L68.667,135.252L68.55,135.286L68.433,135.32L68.315,135.352L68.196,135.382L68.076,135.412L67.956,135.44L67.834,135.467L67.712,135.492L67.589,135.516L67.465,135.539L67.34,135.56L67.215,135.579L67.089,135.597L66.962,135.614L66.834,135.628L66.706,135.641L66.577,135.653L66.447,135.662L66.317,135.67L66.186,135.676L66.054,135.679L65.922,135.682L65.79,135.682L65.656,135.68L65.523,135.676L65.389,135.67L65.245,135.661L65.131,135.652L65.009,135.64L64.889,135.624L64.77,135.606L64.653,135.585L64.537,135.561L64.423,135.535L64.312,135.507L64.202,135.477L64.093,135.445L63.988,135.411L63.884,135.375L63.782,135.337L63.666,135.292L63.489,135.216L63.304,135.129L63.127,135.038L62.958,134.942L62.796,134.845L62.641,134.745L62.493,134.642L62.352,134.539L62.216,134.434L62.086,134.328L61.961,134.222L61.957,134.218L61.788,134.325L61.302,134.631L60.85,134.913L60.391,135.197L59.93,135.479L59.694,135.622L59.459,135.764L59.222,135.905L58.985,136.045L58.746,136.186L58.505,136.326L58.264,136.465L58.021,136.603L57.777,136.741L57.531,136.879L57.285,137.015L57.036,137.15L56.787,137.285L56.536,137.418L56.284,137.551L56.03,137.682L55.775,137.812L55.519,137.941L55.261,138.068L55.002,138.194L54.741,138.318L54.479,138.441L54.215,138.562L53.95,138.682L53.684,138.799L53.416,138.915L53.146,139.029L52.875,139.141L52.603,139.25L52.329,139.358L52.053,139.463L51.776,139.566L51.498,139.666L51.217,139.764L50.936,139.86L50.652,139.953L50.367,140.043L50.081,140.13L49.793,140.214L49.503,140.296L49.217,140.372L49.066,140.412L48.92,140.449L48.773,140.485L48.625,140.52L48.477,140.555L48.329,140.589L48.181,140.622L48.032,140.654L47.883,140.685L47.733,140.715L47.583,140.745L47.432,140.773L47.281,140.801L47.13,140.827L46.978,140.853L46.826,140.878L46.674,140.901L46.521,140.924L46.368,140.946L46.215,140.966L46.061,140.986L45.906,141.005L45.752,141.022L45.597,141.039L45.441,141.054L45.286,141.069L45.13,141.082L44.973,141.094L44.817,141.106L44.659,141.116L44.502,141.124L44.344,141.132L44.186,141.139L44.029,141.144L43.693,141.153L43.357,141.161L43.02,141.166L42.682,141.169L42.343,141.171L42.003,141.17L41.662,141.167L41.32,141.161L40.978,141.154L40.635,141.144L40.291,141.131L39.946,141.117L39.601,141.1L39.256,141.08L38.91,141.057L38.563,141.032L38.216,141.005L37.869,140.974L37.521,140.941L37.173,140.905L36.825,140.866L36.476,140.824L36.128,140.779L35.779,140.731L35.431,140.679L35.082,140.625L34.737,140.568L34.559,140.537L34.385,140.506L34.211,140.474L34.036,140.441L33.862,140.408L33.688,140.373L33.514,140.338L33.34,140.302L33.166,140.265L32.993,140.227L32.819,140.188L32.645,140.148L32.472,140.107L32.299,140.065L32.125,140.023L31.952,139.979L31.779,139.935L31.606,139.889L31.433,139.843L31.261,139.795L31.089,139.747L30.916,139.697L30.744,139.647L30.572,139.595L30.4,139.543L30.229,139.49L30.057,139.435L29.886,139.379L29.715,139.323L29.545,139.265L29.374,139.206L29.204,139.146L29.034,139.085L28.864,139.023L28.695,138.96L28.525,138.896L28.356,138.831L28.188,138.764L28.019,138.697L27.851,138.628L27.684,138.558L27.516,138.487L27.349,138.415L27.182,138.341L27.016,138.267L26.85,138.191L26.684,138.114L26.519,138.036L26.354,137.956L26.189,137.876L26.025,137.794L25.862,137.711L25.698,137.626L25.535,137.541L25.373,137.454L25.211,137.366L25.049,137.277L24.888,137.186L24.728,137.094L24.568,137.001L24.408,136.906L24.249,136.81L24.091,136.713L23.933,136.615L23.775,136.515L23.619,136.414L23.462,136.311L23.307,136.208L23.152,136.102L22.997,135.996L22.843,135.888L22.69,135.779L22.537,135.668L22.384,135.555L22.215,135.428L22.046,135.299L21.879,135.168L21.712,135.035L21.547,134.901L21.384,134.766L21.222,134.629L21.061,134.491L20.902,134.351L20.744,134.211L20.587,134.068L20.431,133.925L20.277,133.78L20.124,133.634L19.972,133.487L19.822,133.339L19.673,133.19L19.525,133.039L19.378,132.887L19.233,132.735L19.089,132.581L18.946,132.426L18.804,132.27L18.663,132.113L18.524,131.955L18.385,131.797L18.248,131.637L18.112,131.476L17.977,131.315L17.843,131.152L17.71,130.989L17.578,130.825L17.448,130.66L17.318,130.494L17.19,130.328L17.062,130.161L16.936,129.993L16.81,129.824L16.686,129.655L16.562,129.485L16.44,129.314L16.318,129.142L16.198,128.97L16.078,128.798L15.959,128.625L15.842,128.451L15.725,128.277L15.609,128.102L15.494,127.926L15.38,127.75L15.267,127.574L15.155,127.397L15.043,127.22L14.933,127.042L14.823,126.864L14.714,126.685L14.606,126.506L14.499,126.327L14.393,126.147L14.287,125.967L14.182,125.787L14.078,125.606L13.975,125.425L13.871,125.241L13.67,124.881L13.471,124.517L13.275,124.152L13.081,123.787L12.891,123.421L12.703,123.055L12.518,122.688L12.335,122.322L12.156,121.956L11.979,121.589L11.804,121.223L11.632,120.858L11.463,120.493L11.295,120.129L11.131,119.766L10.968,119.403L10.808,119.042L10.65,118.683L10.495,118.324L10.341,117.967L10.19,117.612L10.04,117.259L9.893,116.908L9.748,116.559L9.604,116.212L9.462,115.866L9.186,115.187L8.916,114.517L8.656,113.868L8.599,113.727L8.544,113.592L8.486,113.455L8.427,113.317L8.365,113.177L8.303,113.035L8.238,112.892L8.172,112.747L8.104,112.601L8.036,112.455L7.892,112.152L7.745,111.845L7.594,111.534L7.279,110.891L7.118,110.563L6.954,110.228L6.79,109.888L6.624,109.542L6.461,109.193L6.377,109.012L6.295,108.832L6.213,108.651L6.132,108.468L6.051,108.283L5.971,108.097L5.892,107.909L5.813,107.72L5.736,107.529L5.659,107.336L5.584,107.141L5.51,106.945L5.437,106.747L5.365,106.547L5.296,106.345L5.228,106.141L5.161,105.935L5.097,105.728L5.035,105.518L4.975,105.307L4.917,105.093L4.862,104.877L4.809,104.66L4.759,104.44L4.712,104.218L4.668,103.994L4.628,103.768L4.59,103.54L4.557,103.31L4.527,103.086L4.513,102.961L4.5,102.844L4.489,102.726L4.478,102.608L4.468,102.489L4.46,102.37L4.452,102.251L4.446,102.132L4.435,101.872L4.425,101.613L4.417,101.355L4.411,101.096L4.407,100.837L4.405,100.578L4.404,100.319L4.405,100.06L4.408,99.801L4.413,99.542L4.419,99.283L4.427,99.024L4.437,98.764L4.448,98.505L4.461,98.246L4.476,97.987L4.492,97.728L4.51,97.468L4.529,97.209L4.55,96.95L4.572,96.691L4.596,96.432L4.622,96.173L4.649,95.914L4.677,95.656L4.707,95.397L4.739,95.138L4.772,94.88L4.806,94.622L4.841,94.363L4.879,94.105L4.917,93.847L4.957,93.589L4.998,93.332L5.04,93.074L5.084,92.817L5.129,92.559L5.176,92.302L5.223,92.046L5.272,91.789L5.323,91.532L5.374,91.276L5.427,91.02L5.48,90.764L5.535,90.509L5.592,90.254L5.649,89.998L5.708,89.744L5.767,89.489L5.828,89.235L5.89,88.981L5.953,88.727L6.017,88.474L6.082,88.22L6.148,87.967L6.216,87.715L6.284,87.463L6.353,87.211L6.423,86.959L6.495,86.708L6.567,86.457L6.64,86.207L6.714,85.957L6.789,85.707L6.865,85.457L6.942,85.208L7.02,84.96L7.099,84.712L7.179,84.464L7.259,84.217L7.34,83.97L7.423,83.723L7.505,83.477L7.589,83.231L7.674,82.986L7.759,82.742L7.845,82.497L7.932,82.254L8.02,82.011L8.108,81.768L8.197,81.526L8.287,81.284L8.378,81.043L8.469,80.802L8.561,80.562L8.653,80.322L8.746,80.083L8.84,79.845L8.935,79.607L9.031,79.367L9.221,78.897L9.415,78.427L9.612,77.959L9.81,77.493L10.011,77.031L10.213,76.57L10.417,76.113L10.623,75.659L10.83,75.207L11.039,74.758L11.25,74.313L11.462,73.87L11.675,73.431L11.889,72.994L12.104,72.561L12.32,72.132L12.537,71.706L12.755,71.283L12.973,70.864L13.101,70.621L13.23,70.377L13.361,70.133L13.493,69.889L13.627,69.644L13.762,69.4L13.898,69.155L14.036,68.909L14.176,68.664L14.316,68.419L14.458,68.173L14.602,67.927L14.747,67.681L14.893,67.435L15.041,67.19L15.191,66.944L15.341,66.698L15.493,66.453L15.647,66.207L15.802,65.962L15.959,65.717L16.116,65.472L16.276,65.227L16.437,64.983L16.599,64.739L16.763,64.495L16.928,64.252L17.095,64.009L17.263,63.766L17.432,63.524L17.603,63.283L17.776,63.042L17.95,62.802L18.125,62.562L18.302,62.323L18.481,62.084L18.661,61.847L18.842,61.61L19.025,61.374L19.21,61.138L19.396,60.904L19.583,60.67L19.772,60.437L19.963,60.205L20.155,59.974L20.348,59.744L20.543,59.515L20.74,59.287L20.938,59.061L21.138,58.835L21.339,58.611L21.542,58.387L21.746,58.165L21.952,57.944L22.16,57.725L22.369,57.507L22.58,57.29L22.792,57.075L23.006,56.861L23.221,56.648L23.439,56.437L23.657,56.228L23.878,56.02L24.1,55.814L24.323,55.609L24.549,55.406L24.775,55.205L25.004,55.006L25.234,54.808L25.466,54.612L25.7,54.418L25.935,54.226L26.172,54.036L26.411,53.848L26.651,53.662L26.893,53.478L27.137,53.297L27.382,53.117L27.63,52.939L27.878,52.764L28.129,52.591L28.382,52.421L28.636,52.252L28.892,52.087L29.149,51.923L29.409,51.762L29.67,51.604L29.933,51.448L30.197,51.295L30.464,51.145L30.732,50.997L31.002,50.852L31.274,50.71L31.547,50.571L31.818,50.436L31.961,50.367L32.1,50.301L32.239,50.235L32.379,50.171L32.519,50.107L32.659,50.043L32.8,49.981L32.942,49.919L33.084,49.858L33.226,49.798L33.369,49.739L33.512,49.68L33.655,49.623L33.799,49.566L33.944,49.51L34.089,49.455L34.234,49.4L34.38,49.347L34.526,49.294L34.673,49.242L34.82,49.191L34.967,49.141L35.115,49.092L35.263,49.044L35.412,48.996L35.561,48.95L35.711,48.904L35.861,48.86L36.011,48.816L36.162,48.773L36.313,48.731L36.465,48.69L36.617,48.65L36.77,48.611L36.922,48.573L37.076,48.536L37.229,48.499L37.383,48.464L37.538,48.43L37.693,48.396L37.848,48.364L38.004,48.333L38.16,48.303L38.316,48.273L38.473,48.245L38.63,48.218L38.788,48.191L38.945,48.166L39.104,48.142L39.262,48.119L39.421,48.097L39.581,48.076L39.74,48.056L39.9,48.037L40.061,48.019L40.222,48.002L40.383,47.986L40.544,47.972L40.706,47.958L40.868,47.946L41.03,47.934L41.193,47.924L41.356,47.915L41.52,47.907L41.683,47.9L41.835,47.895L42.334,47.913L42.826,48.002L43.3,48.16L43.746,48.383L44.156,48.668L44.522,49.009L44.835,49.398L45.089,49.827L45.28,50.289L45.404,50.773L45.457,51.269L45.439,51.768L45.35,52.26L45.192,52.733L44.968,53.18L44.683,53.59L44.343,53.955L43.954,54.268L43.524,54.523L43.063,54.714L42.579,54.837L42.082,54.89L41.955,54.895L41.839,54.9L41.724,54.905L41.609,54.912L41.494,54.919L41.38,54.927L41.266,54.936L41.152,54.945L41.038,54.956L40.925,54.967L40.812,54.979L40.699,54.991L40.586,55.004L40.474,55.019L40.362,55.033L40.25,55.049L40.138,55.065L40.026,55.082L39.915,55.1L39.804,55.119L39.693,55.138L39.582,55.158L39.472,55.178L39.362,55.2L39.252,55.222L39.142,55.245L39.032,55.268L38.923,55.293L38.813,55.318L38.704,55.344L38.595,55.37L38.487,55.397L38.378,55.425L38.27,55.453L38.162,55.483L38.054,55.513L37.946,55.543L37.838,55.575L37.731,55.607L37.624,55.639L37.517,55.673L37.41,55.707L37.303,55.741L37.196,55.777L37.09,55.813L36.984,55.85L36.878,55.887L36.772,55.925L36.666,55.964L36.561,56.004L36.455,56.044L36.35,56.085L36.245,56.126L36.14,56.168L36.035,56.211L35.931,56.254L35.826,56.299L35.722,56.343L35.618,56.389L35.514,56.435L35.41,56.481L35.307,56.529L35.203,56.577L35.1,56.625L34.997,56.675L34.898,56.723L34.688,56.826L34.484,56.931L34.279,57.038L34.076,57.147L33.873,57.258L33.671,57.373L33.469,57.489L33.268,57.608L33.068,57.73L32.868,57.854L32.669,57.98L32.471,58.108L32.274,58.239L32.077,58.372L31.881,58.507L31.685,58.645L31.49,58.785L31.296,58.927L31.103,59.071L30.911,59.217L30.719,59.365L30.528,59.516L30.338,59.669L30.148,59.823L29.959,59.98L29.772,60.138L29.585,60.299L29.398,60.461L29.213,60.626L29.028,60.792L28.844,60.96L28.661,61.13L28.479,61.302L28.298,61.475L28.118,61.651L27.938,61.828L27.76,62.006L27.582,62.186L27.405,62.368L27.23,62.552L27.055,62.737L26.881,62.923L26.708,63.111L26.536,63.301L26.364,63.491L26.194,63.684L26.025,63.877L25.857,64.072L25.69,64.268L25.523,64.466L25.358,64.665L25.194,64.864L25.031,65.066L24.869,65.268L24.708,65.471L24.547,65.675L24.388,65.881L24.23,66.087L24.073,66.294L23.918,66.503L23.763,66.712L23.609,66.922L23.456,67.133L23.305,67.344L23.154,67.557L23.005,67.77L22.857,67.984L22.709,68.198L22.563,68.413L22.418,68.629L22.275,68.845L22.132,69.062L21.99,69.279L21.85,69.497L21.711,69.715L21.573,69.933L21.436,70.152L21.3,70.371L21.165,70.591L21.032,70.811L20.9,71.031L20.769,71.251L20.639,71.471L20.51,71.691L20.382,71.912L20.256,72.132L20.131,72.353L20.007,72.573L19.884,72.793L19.763,73.014L19.642,73.234L19.523,73.454L19.405,73.673L19.289,73.893L19.174,74.112L18.97,74.502L18.768,74.896L18.566,75.292L18.365,75.692L18.165,76.094L17.966,76.499L17.769,76.907L17.572,77.317L17.377,77.73L17.184,78.146L16.992,78.564L16.801,78.984L16.613,79.406L16.426,79.831L16.242,80.257L16.059,80.686L15.878,81.116L15.7,81.548L15.523,81.984L15.437,82.2L15.35,82.417L15.264,82.636L15.179,82.854L15.095,83.073L15.011,83.293L14.927,83.512L14.845,83.732L14.763,83.953L14.682,84.173L14.601,84.394L14.522,84.616L14.443,84.837L14.365,85.059L14.287,85.281L14.21,85.503L14.135,85.725L14.06,85.948L13.985,86.171L13.912,86.394L13.839,86.617L13.767,86.84L13.697,87.064L13.627,87.288L13.557,87.511L13.489,87.735L13.422,87.959L13.355,88.184L13.29,88.408L13.225,88.632L13.161,88.857L13.099,89.081L13.037,89.305L12.976,89.53L12.916,89.754L12.858,89.979L12.8,90.204L12.743,90.428L12.687,90.653L12.633,90.877L12.579,91.101L12.526,91.326L12.475,91.55L12.425,91.774L12.375,91.998L12.327,92.222L12.28,92.446L12.234,92.67L12.189,92.893L12.145,93.117L12.103,93.34L12.061,93.563L12.021,93.786L11.982,94.009L11.944,94.231L11.908,94.453L11.872,94.675L11.838,94.897L11.805,95.118L11.773,95.34L11.743,95.561L11.713,95.781L11.685,96.002L11.659,96.222L11.633,96.441L11.609,96.661L11.586,96.88L11.565,97.098L11.544,97.317L11.525,97.534L11.508,97.752L11.492,97.969L11.477,98.186L11.463,98.402L11.451,98.618L11.44,98.833L11.431,99.048L11.423,99.262L11.416,99.476L11.411,99.689L11.407,99.902L11.405,100.115L11.404,100.327L11.405,100.538L11.407,100.749L11.41,100.959L11.415,101.168L11.421,101.378L11.429,101.586L11.438,101.792L11.441,101.848L11.444,101.903L11.448,101.958L11.453,102.013L11.458,102.068L11.463,102.124L11.469,102.18L11.475,102.229L11.491,102.351L11.508,102.466L11.527,102.582L11.548,102.7L11.571,102.82L11.597,102.941L11.625,103.063L11.655,103.187L11.687,103.312L11.721,103.438L11.757,103.566L11.796,103.696L11.836,103.827L11.879,103.959L11.923,104.092L11.97,104.227L12.019,104.363L12.069,104.501L12.121,104.639L12.176,104.779L12.232,104.92L12.289,105.063L12.349,105.206L12.41,105.351L12.473,105.497L12.537,105.643L12.603,105.791L12.67,105.94L12.738,106.09L12.807,106.239L12.952,106.547L13.1,106.857L13.251,107.17L13.406,107.488L13.564,107.81L13.884,108.463L14.047,108.798L14.209,109.136L14.37,109.475L14.452,109.651L14.533,109.825L14.613,110.001L14.693,110.177L14.772,110.355L14.85,110.535L14.928,110.716L15.004,110.898L15.08,111.081L15.151,111.258L15.412,111.909L15.674,112.559L15.942,113.217L16.077,113.546L16.214,113.877L16.352,114.209L16.492,114.542L16.633,114.876L16.775,115.211L16.92,115.546L17.065,115.881L17.213,116.217L17.361,116.552L17.512,116.888L17.664,117.223L17.818,117.558L17.973,117.893L18.13,118.226L18.289,118.559L18.449,118.891L18.612,119.222L18.776,119.552L18.941,119.88L19.109,120.207L19.278,120.532L19.45,120.855L19.623,121.177L19.797,121.496L19.976,121.816L20.063,121.97L20.153,122.127L20.243,122.284L20.333,122.439L20.424,122.595L20.515,122.749L20.607,122.902L20.699,123.055L20.792,123.207L20.885,123.359L20.979,123.509L21.073,123.659L21.168,123.808L21.263,123.956L21.358,124.104L21.454,124.25L21.55,124.396L21.647,124.54L21.745,124.684L21.842,124.827L21.941,124.968L22.039,125.109L22.139,125.249L22.238,125.388L22.338,125.526L22.439,125.662L22.54,125.798L22.641,125.933L22.743,126.066L22.845,126.199L22.948,126.33L23.051,126.46L23.154,126.589L23.258,126.717L23.363,126.843L23.468,126.969L23.573,127.093L23.678,127.216L23.785,127.338L23.891,127.458L23.998,127.577L24.105,127.695L24.213,127.812L24.321,127.927L24.429,128.041L24.538,128.153L24.648,128.265L24.757,128.375L24.867,128.483L24.978,128.59L25.088,128.696L25.199,128.8L25.311,128.903L25.423,129.004L25.535,129.104L25.648,129.203L25.761,129.3L25.874,129.396L25.987,129.49L26.101,129.582L26.216,129.673L26.331,129.763L26.446,129.851L26.562,129.939L26.668,130.017L26.776,130.095L26.884,130.172L26.993,130.249L27.103,130.324L27.212,130.399L27.323,130.472L27.434,130.545L27.546,130.617L27.658,130.689L27.771,130.759L27.885,130.829L27.999,130.897L28.114,130.965L28.229,131.032L28.345,131.099L28.461,131.164L28.578,131.229L28.695,131.293L28.813,131.356L28.932,131.418L29.051,131.48L29.171,131.54L29.291,131.6L29.412,131.66L29.533,131.718L29.655,131.776L29.778,131.832L29.901,131.889L30.024,131.944L30.148,131.999L30.272,132.052L30.398,132.105L30.523,132.158L30.649,132.209L30.776,132.26L30.903,132.31L31.03,132.36L31.158,132.408L31.287,132.456L31.416,132.503L31.545,132.55L31.675,132.595L31.806,132.64L31.937,132.685L32.068,132.728L32.2,132.771L32.332,132.813L32.465,132.854L32.598,132.895L32.732,132.935L32.866,132.974L33,133.013L33.135,133.051L33.271,133.088L33.406,133.124L33.542,133.16L33.679,133.195L33.816,133.23L33.953,133.264L34.09,133.297L34.228,133.329L34.367,133.361L34.506,133.392L34.645,133.422L34.784,133.452L34.924,133.481L35.064,133.51L35.204,133.537L35.345,133.565L35.486,133.591L35.627,133.617L35.769,133.642L35.907,133.666L36.196,133.714L36.481,133.758L36.768,133.801L37.056,133.84L37.345,133.878L37.634,133.913L37.925,133.945L38.216,133.976L38.508,134.003L38.8,134.029L39.093,134.053L39.387,134.074L39.681,134.093L39.975,134.109L40.27,134.124L40.565,134.137L40.861,134.147L41.156,134.156L41.452,134.162L41.748,134.167L42.043,134.17L42.339,134.17L42.635,134.169L42.93,134.167L43.226,134.162L43.521,134.155L43.814,134.147L43.921,134.144L44.028,134.139L44.134,134.134L44.24,134.128L44.346,134.121L44.453,134.114L44.559,134.105L44.665,134.096L44.771,134.087L44.877,134.076L44.984,134.065L45.09,134.053L45.196,134.04L45.303,134.026L45.409,134.012L45.515,133.997L45.621,133.981L45.728,133.964L45.834,133.947L45.941,133.929L46.047,133.91L46.154,133.891L46.26,133.871L46.367,133.85L46.473,133.828L46.58,133.806L46.687,133.783L46.794,133.759L46.901,133.735L47.007,133.71L47.114,133.684L47.221,133.658L47.328,133.631L47.43,133.604L47.649,133.545L47.864,133.485L48.078,133.422L48.293,133.357L48.508,133.289L48.723,133.219L48.938,133.146L49.154,133.07L49.369,132.993L49.585,132.912L49.801,132.83L50.017,132.745L50.233,132.658L50.45,132.569L50.666,132.478L50.882,132.384L51.099,132.289L51.315,132.191L51.532,132.091L51.749,131.99L51.965,131.886L52.182,131.781L52.399,131.674L52.616,131.565L52.832,131.455L53.049,131.343L53.266,131.229L53.482,131.114L53.699,130.997L53.916,130.879L54.132,130.759L54.348,130.638L54.565,130.516L54.781,130.393L54.997,130.268L55.213,130.142L55.429,130.016L55.645,129.888L55.861,129.759L56.076,129.629L56.29,129.5L56.723,129.235L57.153,128.969L57.584,128.7L58.058,128.402L58.385,128.195L58.355,128.035L58.324,127.848L58.297,127.661L58.276,127.476L58.258,127.292L58.245,127.11L58.236,126.929L58.23,126.75L58.228,126.572L58.228,126.395L58.232,126.22L58.239,126.046L58.249,125.873L58.261,125.702L58.276,125.532L58.293,125.363L58.313,125.195L58.334,125.028L58.358,124.862L58.383,124.697L58.411,124.533L58.44,124.37L58.471,124.208L58.503,124.046L58.537,123.886L58.572,123.726L58.609,123.566L58.646,123.408L58.686,123.25L58.726,123.092L58.767,122.936L58.81,122.78L58.853,122.624L58.898,122.469L58.943,122.314L58.989,122.16L59.036,122.007L59.085,121.85L59.182,121.549L59.282,121.247L59.384,120.946L59.488,120.647L59.593,120.35L59.7,120.055L59.807,119.762L59.915,119.47L60.129,118.899L60.342,118.336L60.551,117.783L60.652,117.514L60.751,117.247L60.848,116.984L60.942,116.726L61.033,116.472L61.12,116.223L61.204,115.979L61.283,115.741L61.359,115.504L61.394,115.395L61.429,115.283L61.462,115.172L61.494,115.064L61.525,114.957L61.554,114.853L61.582,114.75L61.609,114.65L61.635,114.551L61.658,114.455L61.681,114.362L61.702,114.27L61.722,114.181L61.74,114.095L61.756,114.012L61.771,113.931L61.785,113.853L61.797,113.778L61.808,113.707L61.817,113.638L61.825,113.573L61.832,113.511L61.838,113.453L61.842,113.399L61.845,113.349L61.847,113.302L61.848,113.26L61.848,113.221L61.848,113.187L61.847,113.157L61.845,113.132L61.844,113.111L61.842,113.095L61.837,113.056L61.806,112.831L61.774,112.579L61.743,112.328L61.713,112.078L61.685,111.828L61.659,111.579L61.634,111.33L61.61,111.082L61.588,110.834L61.567,110.587L61.547,110.341L61.529,110.095L61.512,109.849L61.497,109.604L61.483,109.36L61.47,109.116L61.458,108.872L61.448,108.63L61.438,108.387L61.43,108.145L61.423,107.904L61.417,107.663L61.412,107.423L61.408,107.183L61.405,106.944L61.404,106.705L61.403,106.467L61.403,106.229L61.404,105.992L61.406,105.756L61.409,105.519L61.413,105.284L61.418,105.048L61.423,104.814L61.429,104.579L61.436,104.343L61.452,103.879L61.472,103.415L61.493,102.952L61.517,102.491L61.544,102.032L61.572,101.575L61.602,101.119L61.634,100.665L61.668,100.212L61.703,99.761L61.739,99.311L61.776,98.863L61.814,98.416L61.852,97.969L61.93,97.083L62.009,96.2L62.087,95.322L62.164,94.445L62.201,94.01L62.237,93.575L62.271,93.141L62.305,92.707L62.337,92.274L62.368,91.842L62.396,91.41L62.423,90.979L62.448,90.548L62.471,90.117L62.491,89.687L62.509,89.257L62.525,88.827L62.537,88.395L62.543,88.183L62.547,87.968L62.551,87.753L62.554,87.538L62.556,87.324L62.557,87.109L62.558,86.894L62.558,86.679L62.557,86.464L62.554,86.249L62.552,86.034L62.548,85.819L62.543,85.604L62.537,85.388L62.531,85.173L62.523,84.957L62.514,84.742L62.505,84.526L62.494,84.31L62.482,84.094L62.458,83.679L62.431,83.266L62.402,82.855L62.371,82.445L62.338,82.038L62.304,81.632L62.267,81.228L62.228,80.825L62.188,80.424L62.146,80.024L62.102,79.626L62.056,79.229L62.008,78.833L61.959,78.438L61.909,78.045L61.856,77.652L61.803,77.26L61.747,76.869L61.691,76.479L61.633,76.09L61.573,75.702L61.512,75.314L61.45,74.926L61.387,74.539L61.322,74.153L61.256,73.767L61.189,73.381L61.121,72.995L61.052,72.61L60.981,72.225L60.91,71.839L60.838,71.454L60.765,71.069L60.691,70.683L60.616,70.298L60.541,69.913L60.387,69.138L60.231,68.364L60.073,67.587L59.912,66.808L59.586,65.237L59.257,63.653L59.092,62.853L58.927,62.047L58.762,61.236L58.598,60.419L58.436,59.596L58.355,59.18L58.274,58.76L58.247,58.619L58.22,58.474L58.195,58.329L58.17,58.184L58.147,58.04L58.124,57.891L58.082,57.61L58.043,57.324L58.007,57.039L57.975,56.756L57.947,56.474L57.921,56.194L57.898,55.914L57.879,55.637L57.862,55.36L57.848,55.085L57.837,54.812L57.828,54.54L57.822,54.27L57.818,54.001L57.816,53.734L57.816,53.469L57.819,53.205L57.823,52.943L57.83,52.683L57.838,52.424L57.847,52.167L57.859,51.912L57.871,51.659L57.886,51.407L57.901,51.158L57.918,50.91L57.935,50.664L57.954,50.42L57.974,50.178L57.994,49.938L58.016,49.697L58.059,49.23L58.106,48.768L58.153,48.315L58.201,47.87L58.248,47.435L58.341,46.589L58.384,46.182L58.425,45.785L58.464,45.395L58.481,45.208L58.497,45.021L58.513,44.837L58.527,44.656L58.541,44.478L58.553,44.303L58.564,44.13L58.573,43.961L58.581,43.795L58.588,43.625L58.61,43.049L58.638,42.349L58.654,41.958L58.672,41.548L58.693,41.119L58.715,40.675L58.74,40.217L58.767,39.748L58.797,39.272L58.829,38.79L58.864,38.308L58.883,38.063L58.903,37.82L58.923,37.578L58.945,37.336L58.967,37.095L58.99,36.856L59.014,36.618L59.039,36.381L59.066,36.146L59.093,35.914L59.122,35.684L59.151,35.456L59.183,35.23L59.215,35.007L59.25,34.787L59.286,34.569L59.324,34.353L59.364,34.14L59.407,33.928L59.452,33.717L59.502,33.507L59.553,33.307L59.584,33.192L59.614,33.086L59.646,32.979L59.68,32.871L59.716,32.761L59.754,32.65L59.796,32.536L59.841,32.42L59.889,32.301L59.943,32.178L60.002,32.051L60.068,31.918L60.142,31.78L60.226,31.635L60.322,31.483L60.433,31.323L60.562,31.154L60.712,30.977L60.889,30.792L61.098,30.601L61.344,30.409L61.493,30.312L61.778,30.144L61.803,30.131L62.132,29.979L62.292,29.915L62.54,29.839L62.751,29.787L62.969,29.747L63.191,29.72L63.416,29.707L63.641,29.707L63.863,29.72L64.082,29.747L64.294,29.785L64.498,29.834L64.693,29.892L64.918,29.973L65.066,30.039L65.355,30.184L65.487,30.258L65.699,30.397L65.868,30.52L66.022,30.641L66.161,30.759L66.289,30.876L66.408,30.991L66.518,31.104L66.623,31.216L66.721,31.327L66.815,31.437L66.906,31.546L66.993,31.655L67.077,31.765L67.159,31.874L67.239,31.984L67.317,32.094L67.394,32.205L67.469,32.317L67.544,32.43L67.618,32.544L67.691,32.659L67.763,32.775L67.835,32.892L67.907,33.01L67.978,33.13L68.051,33.255L68.19,33.496L68.33,33.747L68.47,34.003L68.609,34.264L68.748,34.53L68.887,34.801L69.026,35.077L69.165,35.356L69.304,35.64L69.442,35.927L69.581,36.218L69.719,36.512L69.856,36.808L69.994,37.107L70.13,37.408L70.266,37.71L70.401,38.013L70.536,38.318L70.669,38.622L70.801,38.927L70.933,39.231L71.062,39.535L71.191,39.837L71.317,40.138L71.443,40.438L71.687,41.025L71.923,41.601L72.151,42.161L72.367,42.7L72.573,43.216L72.766,43.705L72.945,44.163L73.11,44.588L73.259,44.976L73.392,45.322L73.508,45.627L73.679,46.084L73.791,46.386L73.901,46.685L74.011,46.985L74.119,47.285L74.227,47.585L74.333,47.885L74.439,48.186L74.544,48.486L74.648,48.787L74.753,49.09L74.957,49.69L75.158,50.292L75.357,50.895L75.553,51.499L75.746,52.103L75.936,52.707L76.124,53.312L76.31,53.917L76.493,54.522L76.674,55.127L76.852,55.733L77.029,56.338L77.203,56.944L77.376,57.55L77.546,58.155L77.715,58.761L77.882,59.366L78.048,59.972L78.212,60.577L78.375,61.182L78.536,61.787L78.696,62.391L78.855,62.995L79.012,63.599L79.169,64.203L79.48,65.407L79.579,65.794L79.677,66.184L79.776,66.576L79.873,66.971L79.97,67.367L80.067,67.767L80.162,68.168L80.258,68.571L80.352,68.977L80.446,69.385L80.539,69.795L80.631,70.207L80.723,70.621L80.814,71.037L80.903,71.455L80.992,71.874L81.08,72.296L81.167,72.72L81.253,73.145L81.338,73.572L81.422,74L81.505,74.431L81.586,74.863L81.666,75.296L81.746,75.731L81.823,76.168L81.9,76.606L81.975,77.046L82.049,77.487L82.122,77.929L82.193,78.373L82.262,78.817L82.33,79.264L82.397,79.711L82.462,80.159L82.525,80.609L82.587,81.06L82.647,81.512L82.705,81.964L82.761,82.418L82.816,82.873L82.869,83.329L82.92,83.785L82.969,84.242L83.017,84.701L83.062,85.16L83.105,85.619L83.146,86.079L83.185,86.54L83.222,87.002L83.257,87.464L83.29,87.927L83.32,88.39L83.348,88.854L83.374,89.318L83.398,89.782L83.419,90.247L83.438,90.712L83.454,91.177L83.468,91.643L83.479,92.109L83.488,92.575L83.494,93.041L83.496,93.329L83.683,92.959L83.883,92.57L84.085,92.183L84.288,91.797L84.496,91.406L84.594,91.227L84.697,91.042L84.802,90.859L84.909,90.677L85.018,90.497L85.128,90.318L85.241,90.14L85.356,89.964L85.472,89.789L85.591,89.616L85.711,89.444L85.833,89.274L85.957,89.105L86.082,88.938L86.21,88.772L86.365,88.575L86.474,88.445L86.61,88.287L86.78,88.093L86.971,87.877L87.167,87.659L87.27,87.546L87.373,87.436L87.484,87.32L87.609,87.196L87.728,87.087L87.909,86.932L88.039,86.839L88.456,86.582L88.46,86.579L88.805,86.422L89.165,86.302L89.168,86.301L89.542,86.221L89.923,86.182L90.096,86.174L90.299,86.168L90.5,86.165L90.702,86.166L90.902,86.171ZM173.656,91.867L173.648,91.94L173.641,92.016L173.635,92.095L173.63,92.177L173.625,92.262L173.621,92.35L173.618,92.439L173.616,92.532L173.615,92.626L173.615,92.723L173.616,92.821L173.618,92.922L173.621,93.024L173.624,93.127L173.629,93.233L173.634,93.34L173.641,93.448L173.648,93.557L173.656,93.668L173.665,93.779L173.674,93.892L173.685,94.005L173.696,94.119L173.708,94.234L173.72,94.345L173.748,94.582L173.778,94.815L173.81,95.05L173.844,95.284L173.88,95.518L173.918,95.751L173.956,95.982L173.996,96.211L174.037,96.438L174.078,96.662L174.119,96.879L174.203,97.311L174.284,97.722L174.362,98.112L174.433,98.478L174.468,98.659L174.5,98.834L174.53,99.007L174.557,99.168L174.642,99.717L174.718,100.21L174.788,100.677L174.853,101.131L174.885,101.363L174.916,101.596L174.947,101.834L174.978,102.078L175.01,102.331L175.041,102.595L175.073,102.871L175.107,103.163L175.136,103.426L175.164,103.694L175.192,103.965L175.218,104.238L175.244,104.514L175.268,104.793L175.292,105.074L175.314,105.358L175.336,105.645L175.357,105.934L175.376,106.225L175.394,106.519L175.411,106.815L175.428,107.113L175.442,107.414L175.456,107.716L175.469,108.021L175.48,108.328L175.49,108.637L175.499,108.947L175.506,109.26L175.512,109.574L175.517,109.89L175.52,110.208L175.522,110.528L175.522,110.849L175.521,111.172L175.519,111.496L175.515,111.821L175.51,112.148L175.502,112.477L175.494,112.806L175.484,113.137L175.472,113.469L175.458,113.802L175.443,114.136L175.426,114.471L175.407,114.807L175.387,115.144L175.364,115.482L175.34,115.821L175.314,116.16L175.286,116.5L175.257,116.84L175.225,117.182L175.191,117.523L175.156,117.865L175.118,118.208L175.078,118.551L175.036,118.894L174.993,119.237L174.947,119.58L174.898,119.924L174.848,120.268L174.795,120.611L174.74,120.955L174.683,121.299L174.624,121.642L174.562,121.985L174.497,122.328L174.431,122.671L174.361,123.013L174.29,123.355L174.216,123.696L174.139,124.037L174.059,124.377L173.977,124.717L173.893,125.056L173.805,125.394L173.715,125.732L173.622,126.068L173.526,126.404L173.428,126.739L173.326,127.072L173.221,127.405L173.114,127.737L173.005,128.063L172.947,128.231L172.89,128.396L172.832,128.56L172.773,128.724L172.713,128.887L172.653,129.05L172.592,129.213L172.53,129.375L172.467,129.537L172.403,129.699L172.339,129.86L172.273,130.021L172.207,130.181L172.14,130.342L172.072,130.501L172.003,130.66L171.934,130.819L171.864,130.977L171.792,131.135L171.72,131.293L171.647,131.45L171.573,131.607L171.498,131.762L171.422,131.918L171.345,132.073L171.267,132.228L171.189,132.382L171.109,132.535L171.029,132.689L170.947,132.841L170.865,132.993L170.781,133.144L170.724,133.247L170.742,133.25L171.375,133.371L172.006,133.491L172.634,133.61L173.26,133.727L173.884,133.841L174.508,133.952L174.817,134.006L175.127,134.059L175.437,134.112L175.746,134.163L176.055,134.214L176.363,134.263L176.672,134.311L176.98,134.358L177.287,134.403L177.595,134.448L177.902,134.49L178.209,134.532L178.516,134.572L178.823,134.61L179.129,134.647L179.433,134.682L179.743,134.715L179.891,134.73L180.044,134.744L180.197,134.758L180.35,134.772L180.504,134.784L180.657,134.795L180.811,134.806L180.965,134.816L181.118,134.825L181.272,134.832L181.425,134.839L181.578,134.845L181.731,134.85L181.883,134.853L182.035,134.855L182.186,134.857L182.337,134.857L182.487,134.855L182.636,134.853L182.785,134.849L182.932,134.844L183.079,134.838L183.225,134.83L183.369,134.821L183.512,134.81L183.655,134.798L183.795,134.785L183.935,134.77L184.073,134.754L184.209,134.737L184.344,134.718L184.478,134.697L184.609,134.675L184.739,134.652L184.867,134.627L184.993,134.601L185.117,134.573L185.239,134.544L185.36,134.514L185.478,134.482L185.594,134.449L185.707,134.414L185.819,134.378L185.935,134.339L185.982,134.322L186.036,134.302L186.088,134.283L186.14,134.263L186.192,134.242L186.243,134.221L186.293,134.2L186.343,134.179L186.392,134.157L186.441,134.135L186.49,134.113L186.537,134.09L186.584,134.068L186.631,134.044L186.677,134.021L186.722,133.997L186.767,133.973L186.812,133.948L186.855,133.924L186.899,133.899L186.941,133.873L186.984,133.848L187.025,133.822L187.067,133.795L187.107,133.769L187.148,133.742L187.188,133.715L187.227,133.687L187.266,133.659L187.304,133.631L187.342,133.602L187.38,133.573L187.417,133.544L187.454,133.514L187.491,133.484L187.524,133.455L187.576,133.409L187.625,133.365L187.673,133.321L187.719,133.277L187.765,133.232L187.809,133.187L187.852,133.142L187.895,133.096L187.936,133.05L187.977,133.003L188.016,132.956L188.055,132.909L188.093,132.861L188.13,132.813L188.166,132.764L188.202,132.715L188.237,132.665L188.271,132.615L188.305,132.564L188.337,132.512L188.37,132.46L188.401,132.407L188.432,132.354L188.463,132.3L188.492,132.245L188.522,132.189L188.55,132.133L188.578,132.076L188.606,132.018L188.632,131.959L188.659,131.9L188.684,131.84L188.709,131.778L188.734,131.716L188.758,131.654L188.781,131.59L188.804,131.525L188.826,131.46L188.848,131.394L188.869,131.327L188.89,131.259L188.91,131.19L188.929,131.12L188.948,131.05L188.966,130.978L188.983,130.906L189,130.833L189.016,130.759L189.032,130.684L189.047,130.609L189.061,130.532L189.075,130.455L189.088,130.377L189.101,130.298L189.112,130.218L189.123,130.138L189.134,130.056L189.144,129.975L189.153,129.892L189.162,129.808L189.17,129.724L189.177,129.64L189.184,129.554L189.19,129.468L189.195,129.381L189.2,129.293L189.204,129.206L189.207,129.117L189.21,129.027L189.212,128.937L189.213,128.847L189.214,128.756L189.215,128.665L189.214,128.573L189.213,128.48L189.212,128.393L189.206,128.2L189.199,128.011L189.189,127.82L189.177,127.628L189.162,127.435L189.146,127.24L189.127,127.044L189.106,126.848L189.084,126.651L189.059,126.452L189.032,126.254L189.004,126.055L188.974,125.856L188.942,125.656L188.909,125.457L188.874,125.257L188.838,125.058L188.8,124.859L188.762,124.661L188.722,124.462L188.681,124.265L188.639,124.068L188.596,123.872L188.553,123.677L188.509,123.483L188.464,123.293L188.435,123.168L188.405,123.046L188.374,122.923L188.342,122.8L188.309,122.677L188.275,122.553L188.24,122.429L188.205,122.305L188.168,122.18L188.131,122.055L188.093,121.93L188.055,121.808L187.973,121.551L187.889,121.296L187.803,121.04L187.713,120.783L187.621,120.523L187.526,120.262L187.429,119.999L187.33,119.734L187.228,119.468L187.125,119.199L187.02,118.929L186.913,118.657L186.695,118.104L186.474,117.544L186.251,116.978L186.138,116.689L186.025,116.398L185.913,116.105L185.802,115.81L185.691,115.511L185.581,115.211L185.472,114.907L185.366,114.605L185.232,114.214L185.099,113.826L184.838,113.058L184.58,112.292L184.324,111.529L184.069,110.771L183.814,110.017L183.559,109.266L183.431,108.895L183.301,108.518L183.206,108.243L183.108,107.955L182.91,107.37L182.5,106.141L182.285,105.5L182.175,105.176L182.064,104.849L181.951,104.519L181.835,104.186L181.718,103.852L181.599,103.515L181.478,103.178L181.354,102.839L181.228,102.499L181.101,102.159L180.97,101.818L180.838,101.478L180.703,101.139L180.566,100.8L180.425,100.459L180.356,100.294L180.284,100.127L180.212,99.959L180.14,99.793L180.067,99.627L179.993,99.461L179.919,99.297L179.844,99.132L179.768,98.969L179.692,98.807L179.615,98.645L179.538,98.485L179.46,98.325L179.382,98.166L179.302,98.008L179.223,97.852L179.142,97.696L179.061,97.542L178.98,97.389L178.898,97.237L178.815,97.087L178.732,96.938L178.649,96.79L178.564,96.644L178.479,96.499L178.394,96.356L178.308,96.215L178.222,96.075L178.135,95.937L178.048,95.8L177.96,95.666L177.872,95.533L177.783,95.402L177.694,95.273L177.605,95.146L177.515,95.02L177.425,94.897L177.334,94.776L177.244,94.657L177.153,94.541L177.061,94.426L176.97,94.314L176.878,94.203L176.786,94.095L176.693,93.99L176.601,93.887L176.508,93.786L176.416,93.687L176.323,93.591L176.23,93.498L176.137,93.406L176.044,93.318L175.952,93.231L175.859,93.147L175.766,93.066L175.674,92.987L175.581,92.911L175.488,92.837L175.396,92.765L175.304,92.697L175.212,92.63L175.12,92.566L175.022,92.5L174.983,92.474L174.937,92.445L174.891,92.416L174.846,92.388L174.8,92.36L174.754,92.333L174.709,92.307L174.663,92.281L174.618,92.256L174.572,92.231L174.527,92.207L174.481,92.184L174.436,92.161L174.391,92.138L174.345,92.116L174.3,92.095L174.255,92.074L174.209,92.054L174.164,92.034L174.118,92.015L174.073,91.996L174.027,91.978L173.981,91.96L173.936,91.943L173.89,91.927L173.844,91.911L173.798,91.895L173.752,91.88L173.706,91.865L173.66,91.851L173.658,91.85L173.656,91.867ZM65.551,44.546L65.538,44.762L65.523,44.978L65.507,45.194L65.49,45.41L65.471,45.625L65.452,45.84L65.432,46.058L65.39,46.484L65.346,46.913L65.3,47.342L65.207,48.197L65.16,48.625L65.114,49.052L65.069,49.479L65.027,49.906L64.986,50.335L64.968,50.545L64.95,50.758L64.932,50.971L64.916,51.183L64.901,51.395L64.887,51.607L64.873,51.819L64.862,52.031L64.851,52.243L64.842,52.454L64.834,52.665L64.827,52.876L64.822,53.087L64.818,53.297L64.816,53.508L64.816,53.717L64.817,53.927L64.82,54.136L64.825,54.345L64.832,54.554L64.841,54.763L64.851,54.971L64.864,55.179L64.879,55.386L64.895,55.593L64.914,55.8L64.935,56.007L64.959,56.213L64.984,56.419L65.012,56.625L65.043,56.835L65.059,56.933L65.076,57.035L65.093,57.138L65.111,57.24L65.13,57.342L65.15,57.448L65.227,57.848L65.305,58.249L65.463,59.053L65.624,59.852L65.785,60.647L65.948,61.441L66.112,62.233L66.44,63.814L66.768,65.391L66.93,66.182L67.092,66.973L67.251,67.766L67.409,68.559L67.487,68.958L67.564,69.357L67.641,69.757L67.717,70.157L67.792,70.559L67.866,70.961L67.94,71.364L68.012,71.768L68.084,72.173L68.155,72.579L68.224,72.987L68.292,73.395L68.36,73.805L68.426,74.216L68.49,74.629L68.554,75.043L68.616,75.458L68.677,75.875L68.736,76.294L68.793,76.714L68.85,77.136L68.904,77.56L68.957,77.985L69.008,78.412L69.057,78.841L69.105,79.272L69.151,79.705L69.195,80.14L69.237,80.577L69.276,81.016L69.314,81.458L69.35,81.901L69.384,82.347L69.415,82.795L69.444,83.245L69.471,83.697L69.485,83.948L69.497,84.197L69.508,84.446L69.518,84.694L69.527,84.941L69.534,85.188L69.541,85.434L69.546,85.68L69.551,85.924L69.554,86.169L69.556,86.413L69.558,86.656L69.558,86.898L69.557,87.14L69.556,87.382L69.553,87.622L69.55,87.863L69.546,88.102L69.541,88.341L69.535,88.583L69.521,89.055L69.504,89.528L69.484,89.999L69.462,90.468L69.438,90.934L69.411,91.399L69.382,91.861L69.351,92.321L69.319,92.78L69.285,93.236L69.25,93.691L69.213,94.143L69.176,94.594L69.138,95.044L69.06,95.936L68.982,96.822L68.903,97.702L68.826,98.578L68.788,99.012L68.751,99.446L68.716,99.879L68.681,100.31L68.648,100.74L68.616,101.169L68.586,101.597L68.558,102.024L68.531,102.45L68.507,102.875L68.485,103.299L68.465,103.722L68.447,104.145L68.433,104.569L68.426,104.777L68.421,104.988L68.416,105.198L68.412,105.409L68.408,105.619L68.406,105.829L68.404,106.039L68.403,106.248L68.403,106.458L68.404,106.668L68.405,106.877L68.408,107.087L68.411,107.296L68.415,107.506L68.42,107.715L68.427,107.924L68.434,108.134L68.442,108.343L68.451,108.552L68.461,108.761L68.472,108.971L68.484,109.18L68.497,109.389L68.512,109.599L68.527,109.808L68.544,110.018L68.561,110.227L68.58,110.437L68.6,110.647L68.621,110.857L68.644,111.067L68.667,111.277L68.692,111.488L68.718,111.698L68.746,111.909L68.778,112.146L68.798,112.303L68.816,112.485L68.83,112.666L68.84,112.845L68.846,113.022L68.848,113.197L68.847,113.37L68.843,113.542L68.836,113.712L68.825,113.88L68.813,114.048L68.797,114.213L68.779,114.378L68.759,114.541L68.737,114.703L68.713,114.864L68.687,115.023L68.659,115.182L68.629,115.34L68.598,115.497L68.565,115.653L68.531,115.809L68.495,115.963L68.458,116.117L68.42,116.271L68.381,116.423L68.34,116.576L68.299,116.727L68.256,116.879L68.213,117.029L68.168,117.18L68.123,117.33L68.076,117.479L68.028,117.632L67.934,117.925L67.835,118.22L67.734,118.514L67.632,118.807L67.528,119.098L67.422,119.388L67.316,119.676L67.21,119.963L67.102,120.249L66.89,120.811L66.68,121.367L66.474,121.916L66.375,122.182L66.278,122.448L66.218,122.615L66.304,122.54L66.499,122.367L66.692,122.194L66.883,122.019L67.072,121.844L67.258,121.667L67.442,121.49L67.625,121.311L67.804,121.132L67.982,120.951L68.157,120.769L68.329,120.586L68.503,120.398L68.584,120.309L68.667,120.216L68.75,120.123L68.832,120.03L68.914,119.936L68.995,119.842L69.075,119.748L69.155,119.653L69.234,119.558L69.312,119.463L69.39,119.367L69.467,119.271L69.544,119.175L69.619,119.078L69.694,118.982L69.769,118.884L69.843,118.787L69.916,118.689L69.988,118.59L70.06,118.492L70.131,118.393L70.201,118.294L70.271,118.194L70.34,118.094L70.408,117.993L70.475,117.893L70.578,117.737L70.679,117.581L70.78,117.425L70.879,117.267L70.978,117.109L71.076,116.95L71.172,116.791L71.268,116.631L71.362,116.47L71.456,116.309L71.549,116.146L71.64,115.984L71.731,115.82L71.821,115.656L71.91,115.491L71.998,115.325L72.085,115.159L72.171,114.993L72.256,114.825L72.34,114.657L72.423,114.488L72.505,114.319L72.587,114.149L72.667,113.978L72.747,113.806L72.825,113.634L72.903,113.462L72.979,113.289L73.055,113.115L73.13,112.94L73.204,112.765L73.277,112.589L73.349,112.413L73.421,112.236L73.491,112.058L73.561,111.88L73.629,111.702L73.697,111.522L73.764,111.342L73.83,111.162L73.895,110.981L73.959,110.799L74.022,110.617L74.085,110.434L74.146,110.251L74.207,110.067L74.267,109.882L74.326,109.697L74.384,109.512L74.441,109.325L74.497,109.139L74.553,108.951L74.608,108.764L74.662,108.575L74.715,108.387L74.767,108.197L74.818,108.008L74.868,107.817L74.918,107.626L74.967,107.435L75.015,107.243L75.062,107.051L75.108,106.858L75.154,106.665L75.199,106.471L75.243,106.277L75.286,106.082L75.328,105.887L75.369,105.692L75.41,105.496L75.45,105.299L75.489,105.102L75.527,104.905L75.565,104.707L75.602,104.509L75.637,104.31L75.673,104.111L75.707,103.912L75.74,103.712L75.773,103.512L75.805,103.311L75.836,103.11L75.867,102.909L75.897,102.707L75.926,102.505L75.954,102.302L75.981,102.099L76.008,101.896L76.034,101.693L76.059,101.489L76.084,101.284L76.107,101.08L76.13,100.875L76.153,100.67L76.174,100.464L76.195,100.258L76.215,100.052L76.234,99.846L76.253,99.639L76.271,99.432L76.288,99.224L76.305,99.017L76.321,98.809L76.336,98.601L76.35,98.392L76.364,98.187L76.389,97.765L76.412,97.346L76.432,96.926L76.449,96.505L76.464,96.084L76.476,95.661L76.485,95.238L76.492,94.814L76.496,94.39L76.498,93.964L76.497,93.539L76.494,93.112L76.489,92.686L76.481,92.259L76.47,91.831L76.458,91.403L76.443,90.975L76.425,90.547L76.406,90.118L76.384,89.689L76.36,89.26L76.334,88.832L76.306,88.403L76.276,87.974L76.243,87.545L76.209,87.116L76.173,86.687L76.134,86.259L76.094,85.831L76.052,85.403L76.008,84.975L75.962,84.548L75.914,84.121L75.865,83.695L75.813,83.269L75.76,82.844L75.706,82.419L75.649,81.995L75.591,81.572L75.532,81.149L75.471,80.727L75.408,80.306L75.344,79.886L75.279,79.467L75.212,79.048L75.143,78.631L75.073,78.215L75.002,77.799L74.93,77.385L74.856,76.972L74.781,76.56L74.705,76.15L74.628,75.74L74.55,75.332L74.47,74.926L74.39,74.521L74.308,74.117L74.225,73.715L74.142,73.314L74.057,72.915L73.972,72.518L73.886,72.122L73.799,71.728L73.711,71.335L73.622,70.945L73.533,70.556L73.442,70.17L73.352,69.785L73.26,69.402L73.168,69.021L73.076,68.642L72.982,68.265L72.889,67.891L72.795,67.518L72.7,67.148L72.393,65.957L72.239,65.364L72.083,64.77L71.927,64.177L71.771,63.584L71.613,62.992L71.454,62.401L71.294,61.811L71.133,61.221L70.97,60.632L70.806,60.044L70.641,59.457L70.474,58.871L70.305,58.286L70.135,57.702L69.963,57.119L69.789,56.537L69.614,55.956L69.436,55.377L69.256,54.799L69.074,54.222L68.89,53.646L68.704,53.071L68.515,52.498L68.324,51.927L68.129,51.354L68.032,51.072L67.933,50.788L67.834,50.504L67.734,50.221L67.634,49.938L67.532,49.655L67.431,49.373L67.328,49.091L67.224,48.81L67.121,48.531L66.96,48.101L66.851,47.816L66.725,47.485L66.582,47.114L66.423,46.706L66.251,46.265L66.065,45.796L65.868,45.3L65.66,44.782L65.553,44.519L65.551,44.546Z"/>
    <path d="M135.389,71.632L135.488,71.636L135.587,71.643L135.686,71.652L135.784,71.664L135.882,71.679L135.979,71.697L136.076,71.718L136.172,71.741L136.268,71.767L136.363,71.795L136.457,71.827L136.55,71.861L136.642,71.897L136.848,71.982L137.043,72.061L137.24,72.139L137.437,72.216L137.636,72.293L137.837,72.368L138.039,72.442L138.242,72.516L138.447,72.589L138.653,72.662L138.86,72.734L139.067,72.805L139.491,72.949L139.919,73.091L140.351,73.233L140.79,73.375L141.681,73.664L142.135,73.812L142.594,73.964L143.054,74.118L143.29,74.199L143.518,74.277L143.611,74.311L143.704,74.347L143.795,74.386L143.885,74.427L143.974,74.471L144.061,74.517L144.147,74.566L144.232,74.618L144.315,74.671L144.397,74.727L144.477,74.785L144.556,74.846L144.632,74.909L144.707,74.974L144.78,75.04L144.851,75.109L144.92,75.18L144.987,75.253L145.052,75.328L145.115,75.405L145.176,75.483L145.234,75.563L145.29,75.645L145.344,75.728L145.395,75.812L145.444,75.899L145.491,75.986L145.535,76.075L145.577,76.165L145.616,76.256L145.652,76.348L145.686,76.441L145.717,76.535L145.745,76.63L145.771,76.726L145.794,76.822L145.814,76.919L145.832,77.016L145.846,77.114L145.858,77.213L145.867,77.311L145.874,77.41L145.877,77.509L145.878,77.608L145.876,77.707L145.871,77.806L145.864,77.905L145.853,78.004L145.84,78.102L145.824,78.199L145.805,78.297L145.784,78.393L145.76,78.489L145.733,78.585L145.703,78.679L145.671,78.773L145.636,78.866L145.599,78.957L145.559,79.048L145.516,79.137L145.471,79.226L145.423,79.312L145.373,79.398L145.321,79.482L145.266,79.564L145.209,79.645L145.149,79.725L145.088,79.802L145.024,79.878L144.958,79.952L144.89,80.024L144.82,80.094L144.748,80.162L144.674,80.228L144.598,80.292L144.521,80.354L144.442,80.413L144.361,80.471L144.279,80.526L144.195,80.578L144.109,80.628L144.022,80.676L143.934,80.721L143.845,80.764L143.755,80.804L143.663,80.842L143.57,80.877L143.477,80.91L143.382,80.939L143.287,80.966L143.191,80.991L143.094,81.012L142.997,81.031L142.899,81.047L142.801,81.061L142.703,81.071L142.604,81.079L142.505,81.084L142.406,81.086L142.307,81.086L142.208,81.082L142.109,81.076L142.01,81.067L141.912,81.055L141.814,81.041L141.716,81.023L141.619,81.003L141.523,80.98L141.427,80.955L141.332,80.926L141.238,80.896L141.022,80.821L140.812,80.75L140.382,80.605L139.951,80.463L139.515,80.32L138.628,80.033L138.179,79.887L137.725,79.738L137.267,79.586L136.808,79.431L136.572,79.35L136.339,79.268L136.104,79.186L135.869,79.101L135.632,79.016L135.395,78.928L135.157,78.839L134.918,78.747L134.678,78.654L134.437,78.558L134.196,78.461L133.966,78.366L133.875,78.326L133.786,78.285L133.697,78.24L133.61,78.194L133.524,78.145L133.439,78.093L133.356,78.039L133.274,77.983L133.195,77.924L133.116,77.863L133.04,77.8L132.965,77.735L132.893,77.668L132.822,77.599L132.753,77.527L132.686,77.454L132.621,77.379L132.559,77.302L132.499,77.224L132.44,77.144L132.385,77.062L132.331,76.978L132.28,76.894L132.231,76.807L132.185,76.72L132.142,76.631L132.1,76.541L132.062,76.449L132.026,76.357L131.992,76.264L131.962,76.17L131.934,76.075L131.908,75.979L131.886,75.882L131.866,75.785L131.849,75.688L131.834,75.59L131.823,75.492L131.814,75.393L131.808,75.294L131.805,75.195L131.804,75.096L131.807,74.997L131.812,74.898L131.82,74.799L131.831,74.701L131.844,74.603L131.861,74.505L131.88,74.408L131.902,74.311L131.926,74.215L131.954,74.12L131.983,74.026L132.016,73.932L132.051,73.839L132.089,73.748L132.13,73.657L132.173,73.568L132.218,73.48L132.266,73.394L132.316,73.308L132.369,73.224L132.424,73.142L132.482,73.061L132.542,72.982L132.603,72.905L132.668,72.83L132.734,72.756L132.802,72.684L132.872,72.614L132.944,72.546L133.019,72.481L133.094,72.417L133.172,72.356L133.252,72.296L133.333,72.239L133.415,72.185L133.499,72.133L133.585,72.083L133.672,72.035L133.76,71.99L133.85,71.948L133.94,71.908L134.032,71.871L134.125,71.836L134.219,71.804L134.313,71.775L134.409,71.748L134.505,71.724L134.602,71.703L134.699,71.684L134.797,71.668L134.895,71.655L134.993,71.645L135.092,71.638L135.191,71.633L135.29,71.631L135.389,71.632Z"/>
    <path d="M42.867,47.236L43.01,47.242L43.152,47.255L43.293,47.273L43.434,47.297L43.574,47.327L43.712,47.362L43.849,47.403L43.984,47.45L44.117,47.502L44.248,47.559L44.376,47.622L44.502,47.69L44.624,47.763L44.744,47.841L44.86,47.923L44.973,48.011L45.083,48.102L45.188,48.199L45.29,48.299L45.387,48.404L45.48,48.512L45.568,48.624L45.652,48.74L45.731,48.859L45.805,48.981L45.874,49.106L45.938,49.234L45.996,49.364L46.049,49.497L46.097,49.631L46.139,49.768L46.176,49.906L46.207,50.045L46.232,50.185L46.252,50.327L46.266,50.469L46.274,50.612L46.276,50.754L46.272,50.897L46.262,51.04L46.247,51.182L46.226,51.323L46.199,51.463L46.167,51.602L46.128,51.74L46.085,51.876L45.93,52.324L45.779,52.768L45.629,53.215L45.479,53.663L45.331,54.113L45.183,54.566L45.035,55.02L44.887,55.476L44.591,56.395L44.294,57.318L43.994,58.246L43.842,58.713L43.689,59.18L43.535,59.649L43.378,60.118L43.22,60.588L43.06,61.059L42.897,61.531L42.732,62.003L42.564,62.475L42.393,62.948L42.221,63.418L42.132,63.657L42.043,63.894L41.953,64.131L41.862,64.367L41.77,64.604L41.677,64.84L41.584,65.077L41.489,65.313L41.393,65.55L41.297,65.786L41.199,66.022L41.1,66.259L40.999,66.495L40.901,66.723L40.842,66.853L40.778,66.981L40.708,67.106L40.634,67.228L40.555,67.346L40.47,67.462L40.382,67.573L40.288,67.682L40.191,67.786L40.089,67.886L39.983,67.982L39.874,68.073L39.76,68.16L39.644,68.243L39.524,68.32L39.401,68.393L39.275,68.46L39.146,68.522L39.016,68.579L38.882,68.631L38.747,68.677L38.61,68.717L38.472,68.752L38.332,68.782L38.191,68.805L38.05,68.823L37.907,68.835L37.765,68.841L37.622,68.841L37.479,68.836L37.337,68.824L37.195,68.807L37.054,68.784L36.914,68.756L36.776,68.722L36.639,68.682L36.503,68.636L36.37,68.585L36.239,68.529L36.11,68.467L35.984,68.4L35.86,68.328L35.74,68.251L35.623,68.17L35.509,68.083L35.399,67.992L35.293,67.897L35.191,67.797L35.093,67.693L34.999,67.586L34.91,67.474L34.825,67.359L34.745,67.241L34.67,67.119L34.6,66.995L34.535,66.868L34.476,66.738L34.422,66.606L34.373,66.472L34.329,66.336L34.292,66.198L34.26,66.059L34.233,65.918L34.213,65.777L34.198,65.635L34.189,65.493L34.185,65.35L34.188,65.207L34.196,65.064L34.211,64.922L34.231,64.781L34.256,64.641L34.288,64.501L34.325,64.363L34.368,64.227L34.416,64.093L34.47,63.96L34.562,63.746L34.65,63.538L34.737,63.329L34.824,63.12L34.91,62.91L34.996,62.699L35.08,62.487L35.165,62.275L35.248,62.062L35.331,61.848L35.413,61.634L35.495,61.419L35.576,61.203L35.656,60.989L35.816,60.552L35.974,60.115L36.13,59.676L36.285,59.234L36.438,58.79L36.59,58.344L36.74,57.896L36.89,57.446L37.039,56.994L37.188,56.541L37.336,56.086L37.632,55.17L37.928,54.249L38.226,53.324L38.377,52.859L38.528,52.394L38.681,51.928L38.835,51.461L38.991,50.993L39.148,50.525L39.308,50.056L39.467,49.594L39.516,49.46L39.571,49.328L39.631,49.198L39.696,49.071L39.767,48.947L39.842,48.826L39.922,48.708L40.007,48.593L40.097,48.482L40.191,48.375L40.29,48.271L40.392,48.172L40.499,48.077L40.609,47.986L40.723,47.9L40.84,47.819L40.961,47.742L41.084,47.67L41.211,47.604L41.34,47.543L41.471,47.487L41.605,47.436L41.74,47.391L41.877,47.352L42.016,47.318L42.156,47.29L42.297,47.268L42.439,47.251L42.581,47.24L42.724,47.235L42.867,47.236Z"/>
</svg>
